# 3ds Max Wavefront OBJ Exporter v0.97b - (c)2007 guruware
# File Created: 25.10.2017 12:30:11

mtllib base.mtl

#
# object Object002
#

v  -44.8682 -0.0000 43.3552
v  -44.8682 -0.0000 -43.3552
v  44.8682 -0.0000 -43.3552
v  44.8682 -0.0000 43.3552
v  -12.4132 84.6690 11.4432
v  12.5527 84.6690 11.4432
v  12.5527 84.6690 -11.0053
v  -12.4132 84.6690 -11.0053
v  42.0223 6.3411 40.6052
v  -42.0223 6.3411 40.6052
v  42.0223 6.3411 -40.6052
v  -42.0223 6.3411 -40.6052
v  30.1381 11.3124 29.0286
v  -29.9986 11.3124 29.0286
v  30.1381 11.3124 -28.5907
v  -29.9986 11.3124 -28.5907
v  -20.8507 20.0555 22.5444
v  20.9902 20.0555 22.5444
v  7.8496 74.8707 9.4038
v  -7.7101 74.8707 9.4038
v  23.6539 20.0555 19.9815
v  23.6539 20.0555 -19.5436
v  10.5134 74.8707 -6.4030
v  10.5134 74.8707 6.8409
v  20.9902 20.0555 -22.1065
v  -20.8507 20.0555 -22.1065
v  -7.7101 74.8707 -8.9660
v  7.8496 74.8707 -8.9660
v  -23.5144 20.0555 -19.5436
v  -23.5144 20.0555 19.9815
v  -10.3739 74.8707 6.8409
v  -10.3739 74.8707 -6.4030
v  26.3558 13.5887 28.4829
v  -26.2163 13.5887 28.4829
v  9.8618 82.3927 11.9888
v  -9.7223 82.3927 11.9888
v  29.5924 13.5887 -24.8084
v  29.5924 13.5887 25.2462
v  13.0984 82.3927 -8.3144
v  13.0984 82.3927 8.7522
v  -26.2163 13.5887 -28.0450
v  26.3558 13.5887 -28.0450
v  -9.7223 82.3927 -11.5510
v  9.8618 82.3927 -11.5510
v  -29.4529 13.5887 25.2462
v  -29.4529 13.5887 -24.8084
v  -12.9589 82.3927 8.7522
v  -12.9589 82.3927 -8.3144
# 48 vertices

vn -0.6588 -0.3703 0.6548
vn -0.6588 -0.3703 -0.6548
vn 0.6588 -0.3703 -0.6548
vn 0.6588 -0.3703 0.6548
vn -0.5066 0.6976 0.5066
vn 0.5066 0.6976 0.5066
vn 0.5066 0.6976 -0.5066
vn -0.5066 0.6976 -0.5066
vn 0.4881 0.7203 0.4928
vn -0.4879 0.7207 0.4924
vn 0.4869 0.7214 -0.4924
vn -0.4868 0.7218 -0.4920
vn 0.3781 0.8427 0.3832
vn -0.3763 0.8434 0.3836
vn 0.3793 0.8449 -0.3772
vn -0.3774 0.8456 -0.3775
vn 0.3715 0.3221 0.8707
vn -0.3715 0.3221 0.8707
vn -0.3380 -0.0425 0.9402
vn 0.3380 -0.0425 0.9402
vn 0.8687 0.3202 -0.3779
vn 0.8687 0.3202 0.3779
vn 0.9379 -0.0440 0.3441
vn 0.9379 -0.0440 -0.3441
vn -0.3715 0.3221 -0.8707
vn 0.3715 0.3221 -0.8707
vn 0.3380 -0.0425 -0.9402
vn -0.3380 -0.0425 -0.9402
vn -0.8687 0.3202 0.3779
vn -0.8687 0.3202 -0.3779
vn -0.9379 -0.0440 -0.3441
vn -0.9379 -0.0440 0.3441
vn -0.0685 0.2942 0.9533
vn 0.0685 0.2942 0.9533
vn -0.0903 0.0972 0.9912
vn 0.0903 0.0972 0.9912
vn 0.9531 0.2948 0.0688
vn 0.9531 0.2948 -0.0688
vn 0.9913 0.0961 0.0904
vn 0.9913 0.0961 -0.0904
vn 0.0685 0.2942 -0.9533
vn -0.0685 0.2942 -0.9533
vn 0.0903 0.0972 -0.9912
vn -0.0903 0.0972 -0.9912
vn -0.9531 0.2948 -0.0688
vn -0.9531 0.2948 0.0688
vn -0.9913 0.0961 -0.0904
vn -0.9913 0.0961 0.0904
# 48 vertex normals

vt 0.5692 0.8002 0.0000
vt 0.5692 0.9399 0.0000
vt 0.4247 0.9399 0.0000
vt 0.4247 0.8002 0.0000
vt 0.4411 0.3210 0.0000
vt 0.5267 0.3210 0.0000
vt 0.5267 0.3979 0.0000
vt 0.4411 0.3979 0.0000
vt 0.0257 0.0535 0.0000
vt 0.4488 0.0535 0.0000
vt 0.4354 0.0861 0.0000
vt 0.0391 0.0861 0.0000
vt 0.5605 0.5272 0.0000
vt 0.9609 0.5272 0.0000
vt 0.9482 0.5593 0.0000
vt 0.5732 0.5593 0.0000
vt 0.0439 0.5210 0.0000
vt 0.4583 0.5210 0.0000
vt 0.4452 0.5529 0.0000
vt 0.0571 0.5529 0.0000
vt 0.5250 0.0571 0.0000
vt 0.9354 0.0523 0.0000
vt 0.9227 0.0853 0.0000
vt 0.5384 0.0898 0.0000
vt 0.3794 0.1455 0.0000
vt 0.0958 0.1455 0.0000
vt 0.8910 0.6296 0.0000
vt 0.6173 0.6293 0.0000
vt 0.3901 0.6189 0.0000
vt 0.1057 0.6193 0.0000
vt 0.8687 0.1475 0.0000
vt 0.5960 0.1507 0.0000
vt 0.1463 0.1941 0.0000
vt 0.3288 0.1967 0.0000
vt 0.2730 0.4425 0.0000
vt 0.2060 0.4406 0.0000
vt 0.6677 0.6780 0.0000
vt 0.8405 0.6809 0.0000
vt 0.7842 0.9264 0.0000
vt 0.7274 0.9244 0.0000
vt 0.1596 0.6694 0.0000
vt 0.3426 0.6718 0.0000
vt 0.2870 0.9185 0.0000
vt 0.2198 0.9166 0.0000
vt 0.6468 0.1986 0.0000
vt 0.8190 0.1993 0.0000
vt 0.7660 0.4446 0.0000
vt 0.7094 0.4434 0.0000
vt 0.3622 0.1562 0.0000
vt 0.1133 0.1565 0.0000
vt 0.3024 0.4900 0.0000
vt 0.2900 0.4788 0.0000
vt 0.1771 0.4908 0.0000
vt 0.1892 0.4797 0.0000
vt 0.8738 0.6403 0.0000
vt 0.6349 0.6403 0.0000
vt 0.8131 0.9742 0.0000
vt 0.8007 0.9629 0.0000
vt 0.6988 0.9749 0.0000
vt 0.7110 0.9638 0.0000
vt 0.3730 0.6296 0.0000
vt 0.1233 0.6303 0.0000
vt 0.3166 0.9661 0.0000
vt 0.3041 0.9549 0.0000
vt 0.1908 0.9670 0.0000
vt 0.2030 0.9559 0.0000
vt 0.8517 0.1584 0.0000
vt 0.6136 0.1615 0.0000
vt 0.7954 0.4919 0.0000
vt 0.7829 0.4808 0.0000
vt 0.6816 0.4940 0.0000
vt 0.6936 0.4828 0.0000
# 72 texture coords

o Object002
g Object002
usemtl wire_115115115
s off
f 1/1/1 2/2/2 3/3/3 4/4/4 
f 5/5/5 6/6/6 7/7/7 8/8/8 
f 1/9/1 4/10/4 9/11/9 10/12/10 
f 4/13/4 3/14/3 11/15/11 9/16/9 
f 3/17/3 2/18/2 12/19/12 11/20/11 
f 2/21/2 1/22/1 10/23/10 12/24/12 
f 10/12/10 9/11/9 13/25/13 14/26/14 
f 9/16/9 11/15/11 15/27/15 13/28/13 
f 11/20/11 12/19/12 16/29/16 15/30/15 
f 12/24/12 10/23/10 14/31/14 16/32/16 
f 17/33/17 18/34/18 19/35/19 20/36/20 
f 21/37/21 22/38/22 23/39/23 24/40/24 
f 25/41/25 26/42/26 27/43/27 28/44/28 
f 29/45/29 30/46/30 31/47/31 32/48/32 
f 14/26/14 13/25/13 33/49/33 34/50/34 
f 13/25/13 6/51/6 35/52/35 33/49/33 
f 6/51/6 5/53/5 36/54/36 35/52/35 
f 5/53/5 14/26/14 34/50/34 36/54/36 
f 13/28/13 15/27/15 37/55/37 38/56/38 
f 15/27/15 7/57/7 39/58/39 37/55/37 
f 7/57/7 6/59/6 40/60/40 39/58/39 
f 6/59/6 13/28/13 38/56/38 40/60/40 
f 15/30/15 16/29/16 41/61/41 42/62/42 
f 16/29/16 8/63/8 43/64/43 41/61/41 
f 8/63/8 7/65/7 44/66/44 43/64/43 
f 7/65/7 15/30/15 42/62/42 44/66/44 
f 16/32/16 14/31/14 45/67/45 46/68/46 
f 14/31/14 5/69/5 47/70/47 45/67/45 
f 5/69/5 8/71/8 48/72/48 47/70/47 
f 8/71/8 16/32/16 46/68/46 48/72/48 
f 34/50/34 33/49/33 18/34/18 17/33/17 
f 33/49/33 35/52/35 19/35/19 18/34/18 
f 35/52/35 36/54/36 20/36/20 19/35/19 
f 36/54/36 34/50/34 17/33/17 20/36/20 
f 38/56/38 37/55/37 22/38/22 21/37/21 
f 37/55/37 39/58/39 23/39/23 22/38/22 
f 39/58/39 40/60/40 24/40/24 23/39/23 
f 40/60/40 38/56/38 21/37/21 24/40/24 
f 42/62/42 41/61/41 26/42/26 25/41/25 
f 41/61/41 43/64/43 27/43/27 26/42/26 
f 43/64/43 44/66/44 28/44/28 27/43/27 
f 44/66/44 42/62/42 25/41/25 28/44/28 
f 46/68/46 45/67/45 30/46/30 29/45/29 
f 45/67/45 47/70/47 31/47/31 30/46/30 
f 47/70/47 48/72/48 32/48/32 31/47/31 
f 48/72/48 46/68/46 29/45/29 32/48/32 
# 46 polygons

