# 3ds Max Wavefront OBJ Exporter v0.97b - (c)2007 guruware
# File Created: 27.10.2017 11:21:43

mtllib Cannon-ball.mtl

#
# object Sphere001
#

v  0.7876 53.9928 -0.7614
v  0.7876 46.4367 -19.0036
v  -12.1115 46.4367 -13.6606
v  -17.4545 46.4367 -0.7614
v  -12.1115 46.4367 12.1377
v  0.7876 46.4367 17.4807
v  13.6868 46.4367 12.1377
v  19.0298 46.4367 -0.7614
v  13.6868 46.4367 -13.6606
v  0.7876 28.1945 -26.5597
v  -17.4545 28.1945 -19.0036
v  -25.0107 28.1945 -0.7614
v  -17.4545 28.1945 17.4807
v  0.7876 28.1945 25.0369
v  19.0298 28.1945 17.4807
v  26.5859 28.1945 -0.7614
v  19.0298 28.1945 -19.0036
v  0.7876 9.9524 -19.0036
v  -12.1115 9.9524 -13.6606
v  -17.4545 9.9524 -0.7614
v  -12.1115 9.9524 12.1377
v  0.7876 9.9524 17.4807
v  13.6868 9.9524 12.1377
v  19.0298 9.9524 -0.7614
v  13.6868 9.9524 -13.6606
v  0.7876 2.3962 -0.7614
# 26 vertices

vn -0.0000 1.0000 -0.0000
vn 0.0000 0.6630 -0.7486
vn -0.5294 0.6630 -0.5294
vn -0.7486 0.6630 0.0000
vn -0.5294 0.6630 0.5294
vn -0.0000 0.6630 0.7486
vn 0.5294 0.6630 0.5294
vn 0.7486 0.6630 0.0000
vn 0.5294 0.6630 -0.5294
vn 0.0000 -0.0000 -1.0000
vn -0.7071 -0.0000 -0.7071
vn -1.0000 -0.0000 0.0000
vn -0.7071 -0.0000 0.7071
vn -0.0000 -0.0000 1.0000
vn 0.7071 -0.0000 0.7071
vn 1.0000 -0.0000 0.0000
vn 0.7071 -0.0000 -0.7071
vn 0.0000 -0.6630 -0.7486
vn -0.5294 -0.6630 -0.5294
vn -0.7486 -0.6630 0.0000
vn -0.5294 -0.6630 0.5294
vn -0.0000 -0.6630 0.7486
vn 0.5294 -0.6630 0.5294
vn 0.7486 -0.6630 0.0000
vn 0.5294 -0.6630 -0.5294
vn -0.0000 -1.0000 -0.0000
# 26 vertex normals

vt 0.1475 0.8593 0.0000
vt 0.0690 0.7291 0.0000
vt 0.1747 0.7098 0.0000
vt 0.2343 0.8497 0.0000
vt 0.2821 0.7053 0.0000
vt 0.3358 0.8480 0.0000
vt 0.3899 0.7055 0.0000
vt 0.4417 0.8498 0.0000
vt 0.4983 0.7073 0.0000
vt 0.5496 0.8531 0.0000
vt 0.6076 0.7098 0.0000
vt 0.6587 0.8580 0.0000
vt 0.7184 0.7130 0.0000
vt 0.7687 0.8657 0.0000
vt 0.8320 0.7179 0.0000
vt 0.8764 0.8804 0.0000
vt 0.9505 0.7291 0.0000
vt 0.0200 0.5853 0.0000
vt 0.1620 0.5770 0.0000
vt 0.2791 0.5734 0.0000
vt 0.3903 0.5729 0.0000
vt 0.5000 0.5736 0.0000
vt 0.6097 0.5744 0.0000
vt 0.7209 0.5739 0.0000
vt 0.8380 0.5703 0.0000
vt 0.9800 0.5620 0.0000
vt 0.0495 0.4182 0.0000
vt 0.1680 0.4294 0.0000
vt 0.2816 0.4343 0.0000
vt 0.3924 0.4374 0.0000
vt 0.5017 0.4400 0.0000
vt 0.6101 0.4418 0.0000
vt 0.7179 0.4420 0.0000
vt 0.8253 0.4375 0.0000
vt 0.9310 0.4181 0.0000
vt 0.1236 0.2669 0.0000
vt 0.2312 0.2816 0.0000
vt 0.3412 0.2893 0.0000
vt 0.4504 0.2941 0.0000
vt 0.5583 0.2975 0.0000
vt 0.6642 0.2993 0.0000
vt 0.7657 0.2976 0.0000
vt 0.8525 0.2880 0.0000
# 43 texture coords

o Sphere001
g Sphere001
usemtl wire_225198087
s 1
f 1/1/1 2/2/2 3/3/3 
f 1/4/1 3/3/3 4/5/4 
f 1/6/1 4/5/4 5/7/5 
f 1/8/1 5/7/5 6/9/6 
f 1/10/1 6/9/6 7/11/7 
f 1/12/1 7/11/7 8/13/8 
f 1/14/1 8/13/8 9/15/9 
f 1/16/1 9/15/9 2/17/2 
f 2/2/2 10/18/10 11/19/11 3/3/3 
f 3/3/3 11/19/11 12/20/12 4/5/4 
f 4/5/4 12/20/12 13/21/13 5/7/5 
f 5/7/5 13/21/13 14/22/14 6/9/6 
f 6/9/6 14/22/14 15/23/15 7/11/7 
f 7/11/7 15/23/15 16/24/16 8/13/8 
f 8/13/8 16/24/16 17/25/17 9/15/9 
f 9/15/9 17/25/17 10/26/10 2/17/2 
f 10/18/10 18/27/18 19/28/19 11/19/11 
f 11/19/11 19/28/19 20/29/20 12/20/12 
f 12/20/12 20/29/20 21/30/21 13/21/13 
f 13/21/13 21/30/21 22/31/22 14/22/14 
f 14/22/14 22/31/22 23/32/23 15/23/15 
f 15/23/15 23/32/23 24/33/24 16/24/16 
f 16/24/16 24/33/24 25/34/25 17/25/17 
f 17/25/17 25/34/25 18/35/18 10/26/10 
f 26/36/26 19/28/19 18/27/18 
f 26/37/26 20/29/20 19/28/19 
f 26/38/26 21/30/21 20/29/20 
f 26/39/26 22/31/22 21/30/21 
f 26/40/26 23/32/23 22/31/22 
f 26/41/26 24/33/24 23/32/23 
f 26/42/26 25/34/25 24/33/24 
f 26/43/26 18/35/18 25/34/25 
# 16 polygons - 16 triangles

