# 3ds Max Wavefront OBJ Exporter v0.97b - (c)2007 guruware
# File Created: 20.11.2017 10:43:39

mtllib Rock.mtl

#
# object Sphere001
#

v  -0.4234 45.8377 -8.7623
v  -2.6964 39.1878 -17.8848
v  -12.4853 39.1878 -17.0539
v  -9.2829 45.8377 -9.3246
v  -23.6178 40.2776 -7.7178
v  -14.7583 45.8377 -4.8392
v  -18.7631 40.6100 6.5654
v  -9.7188 45.8377 4.4763
v  -14.5735 40.6100 24.4644
v  -9.2829 45.8377 16.1386
v  -1.7479 40.9093 29.2376
v  -0.4233 45.8377 19.0172
v  15.3120 40.9093 17.5815
v  8.5120 45.8377 10.9501
v  27.1472 39.6521 8.9489
v  18.4511 45.8377 7.8952
v  26.8179 40.1960 -6.2474
v  16.6565 45.8377 -6.3991
v  12.7731 40.9425 -21.1173
v  8.4361 45.8377 -12.3755
v  -2.6964 34.4947 -17.8848
v  -12.4853 34.4947 -17.0539
v  -23.6178 33.4049 -7.7178
v  -18.7631 33.0725 6.5654
v  -14.5735 33.0725 24.4644
v  -1.7479 32.7732 29.2376
v  15.3120 32.7732 17.5815
v  27.1472 34.0304 8.9489
v  26.8179 33.4865 -6.2474
v  12.7731 32.7400 -21.1173
v  -0.4234 27.8448 -8.7623
v  -9.2829 27.8448 -9.3246
v  -14.7583 27.8448 -4.8392
v  -9.7188 27.8448 4.4763
v  -4.2433 27.8448 16.1386
v  -0.4233 27.8448 19.0172
v  8.5120 27.8448 10.9501
v  18.4511 27.8448 7.8952
v  13.9116 27.8448 -4.8392
v  8.4361 27.8448 -12.3755
# 40 vertices

vn -0.1630 -0.2704 -0.9488
vn -0.1518 0.4540 -0.8780
vn -0.3387 0.3968 -0.8531
vn -0.1140 0.9178 -0.3803
vn -0.8622 0.4359 -0.2580
vn -0.3697 0.9283 -0.0399
vn -0.8261 0.5142 0.2307
vn -0.9410 -0.2250 0.2528
vn -0.6640 0.4497 0.5974
vn -0.3357 0.9290 0.1559
vn 0.0916 0.4734 0.8761
vn 0.1180 0.9469 0.2991
vn 0.5108 0.5269 0.6793
vn 0.5065 -0.2168 0.8345
vn 0.8328 0.3942 0.3888
vn 0.3271 0.8692 0.3709
vn 0.8336 0.4570 -0.3102
vn 0.2914 0.9240 -0.2474
vn 0.2607 0.4766 -0.8396
vn -0.0115 0.9440 -0.3299
vn -0.1518 -0.4540 -0.8780
vn -0.3387 -0.3968 -0.8531
vn -0.8622 -0.4359 -0.2580
vn -0.8261 -0.5141 0.2307
vn -0.6564 -0.4929 0.5711
vn 0.0916 -0.4734 0.8761
vn 0.5108 -0.5269 0.6793
vn 0.8328 -0.3942 0.3888
vn 0.8117 -0.4967 -0.3072
vn 0.2607 -0.4766 -0.8396
vn -0.1630 0.2704 -0.9488
vn -0.1140 -0.9178 -0.3803
vn -0.3697 -0.9283 -0.0399
vn -0.8648 0.2552 0.4325
vn -0.1661 -0.9768 0.1351
vn 0.0584 -0.9470 0.3157
vn 0.5065 0.2168 0.8345
vn 0.3591 -0.8740 0.3274
vn 0.2069 -0.9711 -0.1187
vn 0.0474 -0.9438 -0.3272
# 40 vertex normals

vt 0.0948 0.1886 0.0000
vt 0.0200 0.1588 0.0000
vt 0.0367 0.0923 0.0000
vt 0.1027 0.1271 0.0000
vt 0.1089 0.0200 0.0000
vt 0.1324 0.0901 0.0000
vt 0.2113 0.0468 0.0000
vt 0.1970 0.1203 0.0000
vt 0.3360 0.0760 0.0000
vt 0.2754 0.1212 0.0000
vt 0.3737 0.1650 0.0000
vt 0.2963 0.1785 0.0000
vt 0.3031 0.2912 0.0000
vt 0.2470 0.2415 0.0000
vt 0.2469 0.3771 0.0000
vt 0.2289 0.3077 0.0000
vt 0.1397 0.3824 0.0000
vt 0.1362 0.3019 0.0000
vt 0.0270 0.2931 0.0000
vt 0.0908 0.2521 0.0000
vt 0.0260 0.1791 0.0000
vt 0.1083 0.1886 0.0000
vt 0.3856 0.1432 0.0000
vt 0.3848 0.1110 0.0000
vt 0.4522 0.1094 0.0000
vt 0.4529 0.1415 0.0000
vt 0.5516 0.0995 0.0000
vt 0.5528 0.1466 0.0000
vt 0.6550 0.0947 0.0000
vt 0.6563 0.1464 0.0000
vt 0.7811 0.0917 0.0000
vt 0.7823 0.1434 0.0000
vt 0.8749 0.0874 0.0000
vt 0.8762 0.1432 0.0000
vt 0.3848 0.0763 0.0000
vt 0.3848 0.0205 0.0000
vt 0.5265 0.0204 0.0000
vt 0.5266 0.0762 0.0000
vt 0.6270 0.0290 0.0000
vt 0.6270 0.0675 0.0000
vt 0.7313 0.0252 0.0000
vt 0.7313 0.0712 0.0000
vt 0.8716 0.0200 0.0000
vt 0.8716 0.0763 0.0000
vt 0.9800 0.0320 0.0000
vt 0.9800 0.0642 0.0000
vt 0.3526 0.5610 0.0000
vt 0.2693 0.5596 0.0000
vt 0.2888 0.5023 0.0000
vt 0.3604 0.4900 0.0000
vt 0.2701 0.4601 0.0000
vt 0.3116 0.4000 0.0000
vt 0.2015 0.4723 0.0000
vt 0.2064 0.3988 0.0000
vt 0.1157 0.4832 0.0000
vt 0.0783 0.3936 0.0000
vt 0.0900 0.5024 0.0000
vt 0.0200 0.4691 0.0000
vt 0.1220 0.5755 0.0000
vt 0.0549 0.6088 0.0000
vt 0.1222 0.6440 0.0000
vt 0.0865 0.7062 0.0000
vt 0.2111 0.6438 0.0000
vt 0.1882 0.7401 0.0000
vt 0.2727 0.6262 0.0000
vt 0.3219 0.6852 0.0000
vt 0.2821 0.5596 0.0000
vt 0.3605 0.5802 0.0000
# 68 texture coords

o Sphere001
g Sphere001
usemtl wire_008110135
s 1
f 1/1/1 2/2/2 3/3/3 4/4/4 
f 4/4/4 3/3/3 5/5/5 6/6/6 
f 6/6/6 5/5/5 7/7/7 8/8/8 
f 8/8/8 7/7/7 9/9/9 10/10/10 
f 10/10/10 9/9/9 11/11/11 12/12/12 
f 12/12/12 11/11/11 13/13/13 14/14/14 
f 14/14/14 13/13/13 15/15/15 16/16/16 
f 16/16/16 15/15/15 17/17/17 18/18/18 
f 18/18/18 17/17/17 19/19/19 20/20/20 
f 20/20/20 19/19/19 2/21/2 1/22/1 
f 2/23/2 21/24/21 22/25/22 3/26/3 
f 3/26/3 22/25/22 23/27/23 5/28/5 
f 5/28/5 23/27/23 24/29/24 7/30/7 
f 7/30/7 24/29/24 25/31/25 9/32/9 
f 9/32/9 25/31/25 26/33/26 11/34/11 
f 11/35/11 26/36/26 27/37/27 13/38/13 
f 13/38/13 27/37/27 28/39/28 15/40/15 
f 15/40/15 28/39/28 29/41/29 17/42/17 
f 17/42/17 29/41/29 30/43/30 19/44/19 
f 19/44/19 30/43/30 21/45/21 2/46/2 
f 21/47/21 31/48/31 32/49/32 22/50/22 
f 22/50/22 32/49/32 33/51/33 23/52/23 
f 23/52/23 33/51/33 34/53/34 24/54/24 
f 24/54/24 34/53/34 35/55/35 25/56/25 
f 25/56/25 35/55/35 36/57/36 26/58/26 
f 26/58/26 36/57/36 37/59/37 27/60/27 
f 27/60/27 37/59/37 38/61/38 28/62/28 
f 28/62/28 38/61/38 39/63/39 29/64/29 
f 29/64/29 39/63/39 40/65/40 30/66/30 
f 30/66/30 40/65/40 31/67/31 21/68/21 
s 2
f 31/48/31 40/65/40 39/63/39 38/61/38 37/59/37 36/57/36 35/55/35 34/53/34 33/51/33 32/49/32 
s 4
f 4/4/4 6/6/6 8/8/8 10/10/10 12/12/12 14/14/14 16/16/16 18/18/18 20/20/20 1/22/1 
# 32 polygons

