# This file uses meters as units for non-parametric coordinates.

mtllib decayBag.mtl
g default
v 13.181867 71.861519 8.039865
v 21.924534 83.180359 3.010850
v 13.539268 72.230278 9.447313
v 22.281931 83.549095 4.418319
v 9.495756 76.148857 9.447321
v 16.893452 84.811127 5.455895
v 9.138386 75.780075 8.039851
v 16.536068 84.442352 4.048433
v 17.964245 85.488579 0.768445
v 22.624733 85.347939 -0.378116
v 18.129980 86.876747 0.362662
v 22.790482 86.736023 -0.783909
v 16.152157 84.432632 -3.760958
v 20.812626 84.291985 -4.907522
v 16.317871 85.820770 -4.166745
v 20.978376 85.680069 -5.313309
v 13.081386 81.662689 -7.826131
v 17.862949 81.243172 -7.949024
v 13.308846 82.165260 -9.173264
v 18.090405 81.745743 -9.296148
v 8.823441 75.668175 -10.581392
v 12.126849 74.026398 -10.990042
v 8.717402 76.482475 -11.783369
v 12.020811 74.840721 -12.192015
v 3.424317 69.985687 -12.163637
v 6.540975 67.695557 -12.167538
v 3.837851 70.619682 -13.407055
v 6.954514 68.329575 -13.410959
v -3.029771 63.385513 -13.031797
v 0.086873 61.095421 -13.035694
v -2.616239 64.019508 -14.275225
v 0.500413 61.729420 -14.279119
v -8.742242 58.926468 -12.925756
v -6.283109 56.083088 -13.831549
v -9.148271 58.914742 -13.723246
v -6.689118 56.071373 -14.629047
v -13.398621 57.891098 -9.964979
v -13.398621 52.697769 -9.964979
v -13.398621 57.891098 -12.411636
v -13.398621 52.697769 -12.411636
v 2.024879 69.793175 12.105385
v 6.068362 65.874641 12.105392
v 6.425760 66.243416 13.512844
v 2.382253 70.161995 13.512848
v -7.260991 63.146297 12.105385
v -3.793883 59.786331 12.105391
v -3.436490 60.155102 13.512846
v -6.903607 63.515102 13.512850
v -13.398621 57.891098 9.964983
v -13.398621 52.697769 9.964983
v -13.398621 52.697769 12.411636
v -13.398621 57.891098 12.411636
v -24.136875 37.403416 13.072555
v -14.830696 35.508366 12.411636
v -25.943459 54.304741 13.645798
v -25.943459 54.304741 -13.645796
v -24.136873 37.403416 -13.072553
v -14.830696 35.508366 -12.411636
v -26.478807 41.524162 13.604637
v -12.224686 41.296768 12.411636
v -12.224686 41.296768 -12.411636
v -26.478807 41.524162 -13.604636
v -28.175165 47.162769 13.592267
v -12.708076 47.469093 12.411636
v -12.708076 47.469093 -12.411636
v -28.175165 47.162769 -13.592265
v -27.306786 51.026482 13.604637
v -27.306787 51.026482 -13.604636
v -27.088449 54.214802 10.230894
v -12.708076 47.469093 9.964983
v -12.224686 41.296768 9.964983
v -14.830696 35.508366 9.964983
v -24.850033 37.269981 9.481434
v -28.254560 41.420128 9.717873
v -30.382969 47.094475 9.641922
v -29.140837 50.859211 9.717873
v -29.356075 54.128052 0.000008
v -17.948130 57.891098 0.000008
v -17.948130 52.697769 0.000008
v -17.257586 47.469093 0.000008
v -16.774195 41.296768 0.000008
v -19.380205 35.508366 0.000008
v -25.861568 36.494305 0.000006
v -29.874178 41.101379 0.000008
v -32.602230 47.492111 0.000008
v -31.084333 50.930454 0.000008
v -27.088449 54.214806 -10.230887
v -12.708076 47.469093 -9.964979
v -12.224686 41.296768 -9.964979
v -14.830696 35.508366 -9.964979
v -24.850031 37.269981 -9.481428
v -28.254560 41.420128 -9.717867
v -30.382969 47.094475 -9.641915
v -29.140837 50.859211 -9.717867
v -26.473433 54.536022 -8.399821
v -14.419485 57.554356 -8.181504
v -14.419485 57.554356 -10.190275
v -25.533365 54.609863 -11.203547
v -25.533365 54.609863 11.203549
v -14.419485 57.554356 10.190275
v -14.419485 57.554356 8.181507
v -26.473433 54.536018 8.399828
v -18.968994 57.554356 0.000007
v -28.335211 54.464794 0.000007
v -26.473433 51.094563 -8.399821
v -14.419485 54.112896 -8.181504
v -14.419485 54.112896 -10.190275
v -25.533365 51.168404 -11.203547
v -25.533365 51.168404 11.203549
v -14.419485 54.112896 10.190275
v -14.419485 54.112896 8.181507
v -26.473433 51.094559 8.399828
v -18.968994 54.112896 0.000007
v -28.335211 51.023335 0.000007
vt 0.375000 0.000000
vt 0.625000 0.000000
vt 0.375000 0.250000
vt 0.625000 0.250000
vt 0.375000 0.500000
vt 0.625000 0.500000
vt 0.375000 0.750000
vt 0.625000 0.750000
vt 0.375000 1.000000
vt 0.625000 1.000000
vt 0.875000 0.000000
vt 0.875000 0.250000
vt 0.125000 0.000000
vt 0.125000 0.250000
vt 0.625000 0.000000
vt 0.875000 0.000000
vt 0.875000 0.250000
vt 0.625000 0.250000
vt 0.625000 0.000000
vt 0.875000 0.000000
vt 0.875000 0.250000
vt 0.625000 0.250000
vt 0.625000 0.000000
vt 0.875000 0.000000
vt 0.875000 0.250000
vt 0.625000 0.250000
vt 0.625000 0.000000
vt 0.875000 0.000000
vt 0.875000 0.250000
vt 0.625000 0.250000
vt 0.625000 0.000000
vt 0.875000 0.000000
vt 0.875000 0.250000
vt 0.625000 0.250000
vt 0.625000 0.000000
vt 0.875000 0.000000
vt 0.875000 0.250000
vt 0.625000 0.250000
vt 0.625000 0.000000
vt 0.875000 0.000000
vt 0.875000 0.250000
vt 0.625000 0.250000
vt 0.584655 -0.330954
vt 0.956072 0.017724
vt 0.934313 0.912387
vt 0.562898 0.563714
vt 0.125000 0.000000
vt 0.375000 0.000000
vt 0.375000 0.250000
vt 0.125000 0.250000
vt 0.125000 0.000000
vt 0.375000 0.000000
vt 0.375000 0.250000
vt 0.125000 0.250000
vt 0.034371 0.021289
vt 0.289937 0.021286
vt 0.303682 0.554429
vt 0.063590 0.554426
vt 0.375000 0.187500
vt 0.624720 0.187500
vt 0.624939 0.250000
vt 0.375000 0.250000
vt 0.375000 0.437500
vt 0.625000 0.462112
vt 0.625000 0.500000
vt 0.375000 0.500000
vt 0.625000 0.562500
vt 0.375000 0.562500
vt 0.375000 0.750000
vt 0.625000 0.750000
vt 0.625000 0.812500
vt 0.375000 0.812500
vt 0.812500 0.250000
vt 0.824350 0.187500
vt 0.875000 0.187500
vt 0.125000 0.187500
vt 0.187500 0.187500
vt 0.187500 0.250000
vt 0.125000 0.250000
vt 0.375000 0.000000
vt 0.625000 0.000000
vt 0.625000 0.062500
vt 0.375000 0.062500
vt 0.812500 0.062500
vt 0.812500 0.000000
vt 0.875000 0.000000
vt 0.875000 0.062500
vt 0.375000 0.687500
vt 0.625000 0.687500
vt 0.125000 0.000000
vt 0.187500 0.000000
vt 0.187500 0.062500
vt 0.125000 0.062500
vt 0.625000 0.125000
vt 0.375000 0.125000
vt 0.812500 0.125000
vt 0.875000 0.125000
vt 0.375000 0.625000
vt 0.625000 0.625000
vt 0.187500 0.125000
vt 0.125000 0.125000
vt 0.624982 0.296505
vt 0.375000 0.312500
vt 0.675650 0.187500
vt 0.684537 0.250000
vt 0.687500 0.125000
vt 0.687500 0.062500
vt 0.687500 0.000000
vt 0.375000 0.937500
vt 0.625000 0.937500
vt 0.625000 1.000000
vt 0.375000 1.000000
vt 0.312500 0.062500
vt 0.312500 0.000000
vt 0.312500 0.125000
vt 0.312500 0.187500
vt 0.312500 0.250000
vt 0.625000 0.375000
vt 0.375000 0.375000
vt 0.750000 0.187500
vt 0.750000 0.250000
vt 0.750000 0.125000
vt 0.750000 0.062500
vt 0.750000 0.000000
vt 0.375000 0.875000
vt 0.625000 0.875000
vt 0.250000 0.062500
vt 0.250000 0.000000
vt 0.250000 0.125000
vt 0.250000 0.187500
vt 0.250000 0.250000
vt 0.625000 0.462112
vt 0.625000 0.500000
vt 0.375000 0.500000
vt 0.375000 0.437500
vt 0.375000 0.250000
vt 0.624939 0.250000
vt 0.624982 0.296505
vt 0.375000 0.312500
vt 0.625000 0.375000
vt 0.375000 0.375000
vt 0.625000 0.462112
vt 0.625000 0.500000
vt 0.375000 0.500000
vt 0.375000 0.437500
vt 0.375000 0.250000
vt 0.624939 0.250000
vt 0.624982 0.296505
vt 0.375000 0.312500
vt 0.625000 0.375000
vt 0.375000 0.375000
vn -0.027922 -0.447135 -0.894030
vn 0.114561 -0.609340 -0.784589
vn 0.509494 0.311567 0.802086
vn 0.464930 0.041640 0.884368
vn 0.101584 0.477812 0.872569
vn 0.073847 0.423970 0.902661
vn -0.418277 -0.173764 -0.891544
vn -0.413641 -0.089243 -0.906056
vn -0.382285 -0.916870 -0.114929
vn 0.305025 -0.944890 -0.118921
vn -0.027158 0.973238 0.228189
vn 0.330360 0.938527 0.100143
vn -0.280768 -0.778578 0.561235
vn 0.333549 -0.913599 0.232553
vn -0.239941 0.892584 -0.381737
vn 0.196509 0.835835 -0.512605
vn -0.304953 -0.308611 0.900979
vn 0.319108 -0.754989 0.572854
vn -0.196726 0.623749 -0.756463
vn 0.262995 0.471460 -0.841760
vn -0.280894 -0.080427 0.956363
vn 0.266867 -0.513433 0.815579
vn -0.218168 0.453175 -0.864312
vn 0.303691 0.076572 -0.949689
vn -0.287101 0.105359 0.952089
vn 0.216577 -0.363223 0.906181
vn -0.187107 0.329534 -0.925418
vn 0.292403 -0.088861 -0.952158
vn -0.182677 0.105986 0.977444
vn 0.194269 -0.328358 0.924360
vn -0.216115 0.283600 -0.934273
vn 0.211495 -0.144026 -0.966709
vn 0.194908 0.207903 0.958534
vn 0.442570 -0.405562 0.799782
vn -0.282705 0.246972 -0.926867
vn 0.014547 -0.258082 -0.966014
vn 0.770606 0.129879 0.623937
vn 0.892169 0.010437 0.451581
vn -0.162300 0.381784 -0.909890
vn 0.167246 -0.091753 -0.981637
vn 0.034463 -0.411262 -0.910865
vn -0.299638 0.101156 -0.948675
vn 0.297318 -0.040165 0.953933
vn -0.015459 0.308153 0.951211
vn 0.287061 -0.279211 -0.916317
vn -0.111622 0.290780 -0.950257
vn 0.136984 -0.272330 0.952403
vn -0.223932 0.211795 0.951314
vn 0.876636 -0.034914 -0.479887
vn 0.522535 0.187226 -0.831808
vn 0.223372 -0.128478 0.966229
vn -0.166068 0.265192 0.949787
vn -0.131505 0.070937 0.988774
vn -0.115291 0.317358 0.941272
vn 0.034614 0.999300 -0.014167
vn -0.541098 0.814423 -0.209588
vn -0.332409 0.532273 0.778582
vn -0.029100 0.687110 0.725971
vn -0.115292 0.317358 -0.941271
vn -0.131505 0.070938 -0.988774
vn -0.147419 -0.453338 -0.879063
vn 0.165711 -0.504800 -0.847182
vn 0.455309 -0.874762 0.165788
vn -0.436829 -0.890821 -0.124974
vn -0.885613 0.390438 -0.251491
vn -0.796830 0.564637 -0.215053
vn -0.147419 -0.453338 0.879063
vn 0.165711 -0.504800 0.847182
vn 0.295787 -0.047765 0.954059
vn -0.158074 -0.117895 0.980364
vn 0.928905 -0.155677 0.336005
vn 0.295787 -0.047766 -0.954059
vn -0.158074 -0.117895 -0.980364
vn -0.849357 -0.477555 -0.224799
vn 0.253895 0.026074 0.966880
vn -0.194808 -0.017453 0.980686
vn 0.934706 0.095689 0.342299
vn 0.253896 0.026074 -0.966880
vn -0.194809 -0.017453 -0.980686
vn -0.956770 -0.106327 -0.270714
vn -0.029101 0.687109 -0.725971
vn -0.332409 0.532273 -0.778582
vn -0.541098 0.814423 0.209589
vn 0.034613 0.999300 0.014167
vn 0.934706 0.095689 -0.342299
vn 0.928905 -0.155677 -0.336006
vn 0.455309 -0.874762 -0.165789
vn -0.436829 -0.890821 0.124974
vn -0.849357 -0.477555 0.224799
vn -0.956770 -0.106327 0.270714
vn -0.885613 0.390438 0.251491
vn -0.796830 0.564636 0.215053
vn -0.465549 0.885022 0.000000
vn 0.087836 0.996135 0.000000
vn 0.997888 0.064957 0.000000
vn 0.990785 0.135444 0.000000
vn 0.994666 0.103149 0.000000
vn 0.982704 -0.185182 -0.000000
vn 0.266492 -0.963837 0.000000
vn -0.443616 -0.896217 -0.000000
vn -0.864501 -0.502631 -0.000000
vn -0.995040 -0.099479 -0.000000
vn -0.907409 0.420248 0.000000
vn -0.804370 0.594128 0.000000
vn -0.384523 0.717498 0.580809
vn -0.887040 0.229873 -0.400399
vn -0.089835 0.644527 0.759285
vn 0.863615 0.451772 0.223768
vn -0.384523 0.717497 -0.580809
vn -0.089836 0.644527 -0.759285
vn -0.887039 0.229873 0.400400
vn 0.863615 0.451770 -0.223768
vn -0.992945 0.118576 0.000000
vn 0.921118 0.389284 0.000000
s 1
g pCube3
usemtl initialShadingGroup
f 1/1/1 2/2/2 4/4/3 3/3/4
f 3/3/4 4/4/3 6/6/5 5/5/6
f 5/5/6 6/6/5 8/8/7 7/7/8
f 7/7/8 8/8/7 2/10/2 1/9/1
f 2/2/2 8/11/7 9/16/9 10/15/10
f 8/11/7 6/12/5 11/17/11 9/16/9
f 6/12/5 4/4/3 12/18/12 11/17/11
f 4/4/3 2/2/2 10/15/10 12/18/12
f 10/15/10 9/16/9 13/20/13 14/19/14
f 9/16/9 11/17/11 15/21/15 13/20/13
f 11/17/11 12/18/12 16/22/16 15/21/15
f 12/18/12 10/15/10 14/19/14 16/22/16
f 14/19/14 13/20/13 17/24/17 18/23/18
f 13/20/13 15/21/15 19/25/19 17/24/17
f 15/21/15 16/22/16 20/26/20 19/25/19
f 16/22/16 14/19/14 18/23/18 20/26/20
f 18/23/18 17/24/17 21/28/21 22/27/22
f 17/24/17 19/25/19 23/29/23 21/28/21
f 19/25/19 20/26/20 24/30/24 23/29/23
f 20/26/20 18/23/18 22/27/22 24/30/24
f 22/27/22 21/28/21 25/32/25 26/31/26
f 21/28/21 23/29/23 27/33/27 25/32/25
f 23/29/23 24/30/24 28/34/28 27/33/27
f 24/30/24 22/27/22 26/31/26 28/34/28
f 26/31/26 25/32/25 29/36/29 30/35/30
f 25/32/25 27/33/27 31/37/31 29/36/29
f 27/33/27 28/34/28 32/38/32 31/37/31
f 28/34/28 26/31/26 30/35/30 32/38/32
f 30/35/30 29/36/29 33/40/33 34/39/34
f 29/36/29 31/37/31 35/41/35 33/40/33
f 31/37/31 32/38/32 36/42/36 35/41/35
f 32/38/32 30/35/30 34/39/34 36/42/36
f 34/39/34 33/40/33 37/44/37 38/43/38
f 33/40/33 35/41/35 39/45/39 37/44/37
f 35/41/35 36/42/36 40/46/40 39/45/39
f 36/42/36 34/39/34 38/43/38 40/46/40
f 7/13/8 1/1/1 42/48/41 41/47/42
f 1/1/1 3/3/4 43/49/43 42/48/41
f 3/3/4 5/14/6 44/50/44 43/49/43
f 5/14/6 7/13/8 41/47/42 44/50/44
f 41/47/42 42/48/41 46/52/45 45/51/46
f 42/48/41 43/49/43 47/53/47 46/52/45
f 43/49/43 44/50/44 48/54/48 47/53/47
f 44/50/44 41/47/42 45/51/46 48/54/48
f 45/51/46 46/52/45 50/56/49 49/55/50
f 46/52/45 47/53/47 51/57/51 50/56/49
f 47/53/47 48/54/48 52/58/52 51/57/51
f 48/54/48 45/51/46 49/55/50 52/58/52
f 67/59/53 51/60/51 52/61/52 55/62/54
f 105/145/55 106/142/56 107/143/57 108/144/58
f 56/66/59 39/65/39 40/67/40 68/68/60
f 57/69/61 58/70/62 90/71/63 91/72/64
f 68/76/60 94/77/65 87/78/66 56/79/59
f 53/80/67 54/81/68 60/82/69 59/83/70
f 89/84/71 90/85/63 58/86/62 61/87/72
f 62/88/73 61/89/72 58/70/62 57/69/61
f 57/90/61 91/91/64 92/92/74 62/93/73
f 59/83/70 60/82/69 64/94/75 63/95/76
f 88/96/77 89/84/71 61/87/72 65/97/78
f 66/98/79 65/99/78 61/89/72 62/88/73
f 62/93/73 92/92/74 93/100/80 66/101/79
f 63/95/76 64/94/75 51/60/51 67/59/53
f 38/74/38 88/96/77 65/97/78 40/75/40
f 68/68/60 40/67/40 65/99/78 66/98/79
f 66/101/79 93/100/80 94/77/65 68/76/60
f 109/146/81 110/147/82 111/148/83 112/149/84
f 64/94/75 70/106/85 50/104/49 51/60/51
f 60/82/69 71/107/86 70/106/85 64/94/75
f 54/81/68 72/108/87 71/107/86 60/82/69
f 73/109/88 72/110/87 54/111/68 53/112/67
f 74/113/89 73/114/88 53/80/67 59/83/70
f 75/115/90 74/113/89 59/83/70 63/95/76
f 76/116/91 75/115/90 63/95/76 67/59/53
f 69/117/92 76/116/91 67/59/53 55/62/54
f 112/149/84 111/148/83 113/150/93 114/151/94
f 49/105/50 50/104/49 79/120/95 78/121/96
f 50/104/49 70/106/85 80/122/97 79/120/95
f 70/106/85 71/107/86 81/123/98 80/122/97
f 71/107/86 72/108/87 82/124/99 81/123/98
f 83/125/100 82/126/99 72/110/87 73/109/88
f 84/127/101 83/128/100 73/114/88 74/113/89
f 85/129/102 84/127/101 74/113/89 75/115/90
f 86/130/103 85/129/102 75/115/90 76/116/91
f 77/131/104 86/130/103 76/116/91 69/117/92
f 114/151/94 113/150/93 106/142/56 105/145/55
f 78/121/96 79/120/95 38/74/38 37/73/37
f 79/120/95 80/122/97 88/96/77 38/74/38
f 80/122/97 81/123/98 89/84/71 88/96/77
f 81/123/98 82/124/99 90/85/63 89/84/71
f 91/72/64 90/71/63 82/126/99 83/125/100
f 92/92/74 91/91/64 83/128/100 84/127/101
f 93/100/80 92/92/74 84/127/101 85/129/102
f 94/77/65 93/100/80 85/129/102 86/130/103
f 87/78/66 94/77/65 86/130/103 77/131/104
f 37/64/37 39/65/39 97/133/105 96/132/106
f 39/65/39 56/66/59 98/134/107 97/133/105
f 56/66/59 87/63/66 95/135/108 98/134/107
f 55/62/54 52/61/52 100/137/109 99/136/110
f 52/61/52 49/102/50 101/138/111 100/137/109
f 69/103/92 55/62/54 99/136/110 102/139/112
f 49/102/50 78/118/96 103/140/113 101/138/111
f 77/119/104 69/103/92 102/139/112 104/141/114
f 78/118/96 37/64/37 96/132/106 103/140/113
f 87/63/66 77/119/104 104/141/114 95/135/108
f 96/132/106 97/133/105 107/143/57 106/142/56
f 97/133/105 98/134/107 108/144/58 107/143/57
f 98/134/107 95/135/108 105/145/55 108/144/58
f 99/136/110 100/137/109 110/147/82 109/146/81
f 100/137/109 101/138/111 111/148/83 110/147/82
f 102/139/112 99/136/110 109/146/81 112/149/84
f 101/138/111 103/140/113 113/150/93 111/148/83
f 104/141/114 102/139/112 112/149/84 114/151/94
f 103/140/113 96/132/106 106/142/56 113/150/93
f 95/135/108 104/141/114 114/151/94 105/145/55
