# This file uses meters as units for non-parametric coordinates.

mtllib guyChestPiece.mtl
g default
v -0.587310 25.691252 -17.982558
v -1.975363 22.646597 -18.654014
v -6.636288 32.850193 -15.891934
v -3.464366 30.278399 -17.908455
v -6.476529 19.615099 -18.750667
v -10.559599 33.781769 -15.276428
v -14.335390 18.687115 -16.227219
v -16.258307 34.300838 -14.512247
v -22.441999 32.558155 -12.606295
v -22.073816 20.162970 -10.930521
v -25.258543 28.422331 -9.762535
v -24.203440 22.394573 -7.968573
v -1.847542 26.229719 -18.594360
v -3.424177 24.026274 -18.904449
v -6.571613 31.022432 -17.453125
v -3.820788 29.415953 -18.588874
v -7.666525 21.885365 -18.691406
v -10.432990 31.779818 -16.908446
v -14.364420 21.039444 -16.995579
v -15.871974 32.516529 -16.031746
v -21.156496 21.396091 -13.699322
v -21.640791 31.065210 -14.485457
v -22.980301 24.012697 -12.965565
v -23.929739 27.653271 -12.801193
v -3.596759 26.198227 -18.069615
v -4.923612 24.343868 -18.330573
v -7.572406 30.231640 -17.109184
v -5.257388 28.879673 -18.065003
v -8.493854 22.542139 -18.151286
v -10.840450 31.060644 -16.635143
v -14.130615 21.830236 -16.724127
v -15.456712 31.915075 -15.876183
v -19.945051 21.854271 -13.915644
v -20.494627 30.624849 -14.547631
v -21.381500 24.332443 -13.274571
v -22.180521 27.396248 -13.194247
v -4.500133 26.484602 -19.865756
v -5.893666 25.126945 -20.041457
v -7.683651 29.166698 -18.952216
v -5.639381 28.343685 -19.890548
v -9.235327 23.831173 -19.613540
v -10.838518 29.935486 -18.281852
v -14.138483 23.202599 -17.976643
v -15.194095 30.917261 -17.127148
v -19.307510 22.600239 -14.955631
v -19.951124 29.828512 -15.423367
v -20.610813 24.772507 -13.237854
v -21.235746 26.968697 -14.074421
v -2.999064 30.217180 -16.352532
v -0.122008 25.630033 -16.426634
v -6.312778 32.650150 -14.324463
v -1.651853 22.446554 -17.086544
v -10.275851 33.514748 -13.703621
v -6.192781 19.348078 -17.177860
v -15.692728 34.232727 -13.007479
v -13.769811 18.619003 -14.722450
v -21.117504 20.340313 -9.663336
v -21.485687 32.735500 -11.339110
v -23.036196 22.690308 -6.877140
v -24.091299 28.718065 -8.671104
v -26.510899 23.457794 -2.679769
v -30.053661 28.447380 -4.473731
v -25.583975 24.226381 -1.588336
v -29.126736 29.215967 -3.382300
v -28.004486 23.946428 2.180463
v -32.419662 28.889389 2.180435
v -27.305077 25.502533 2.180472
v -31.720251 29.375219 2.180444
v -25.799603 25.638996 9.019506
v -28.703526 31.301594 8.609983
v -24.336914 26.101864 8.483364
v -27.240835 31.764462 8.073846
v -12.203293 35.543312 14.670354
v -14.829142 41.243969 13.542132
v -11.683160 35.237446 13.161362
v -14.309002 40.938107 12.033143
v 15.143934 47.653221 10.207503
v 10.602098 51.985008 9.079282
v 15.740184 47.560555 8.698512
v 11.198349 51.892349 7.570292
v 24.829441 52.369473 -3.840024
v 18.788368 51.005905 -5.360447
v 25.399727 50.847843 -3.815884
v 19.358654 49.484276 -5.336313
v 16.754457 36.460205 -17.434301
v 12.386187 40.334400 -14.870248
v 16.764536 35.333374 -16.263269
v 12.396258 39.207565 -13.699218
v 23.414097 52.061268 2.864556
v 23.776127 50.873070 2.863258
v 18.428616 52.023487 1.436173
v 18.066589 53.211689 1.437473
vt 0.644922 0.957948
vt 0.614461 0.931291
vt 0.705069 0.886535
vt 0.682594 0.933114
vt 0.580366 0.862160
vt 0.719084 0.810692
vt 0.554642 0.748931
vt 0.729806 0.705394
vt 0.529292 0.614347
vt 0.695312 0.591576
vt 0.569057 0.558294
vt 0.625831 0.554910
vt 0.753464 0.598403
vt 0.656332 0.518911
vt 0.611210 0.425821
vt 0.831188 0.572076
vt 0.604060 0.332258
vt 0.917459 0.479944
vt 0.603695 0.206313
vt 0.953354 0.300091
vt 0.934616 0.092582
vt 0.649125 0.071810
vt 0.897568 0.005809
vt 0.750867 0.000000
vt 0.317415 0.648261
vt 0.256839 0.597223
vt 0.294275 0.573507
vt 0.338029 0.616404
vt 0.526791 0.510711
vt 0.449691 0.591121
vt 0.424682 0.579329
vt 0.471065 0.515895
vt 0.207340 0.490745
vt 0.261334 0.475588
vt 0.553663 0.417648
vt 0.494034 0.424772
vt 0.198033 0.309066
vt 0.251689 0.322310
vt 0.566879 0.282568
vt 0.516373 0.299218
vt 0.529567 0.134762
vt 0.489215 0.170426
vt 0.242389 0.106750
vt 0.281353 0.164466
vt 0.279570 0.018534
vt 0.438435 0.032430
vt 0.418784 0.108015
vt 0.338150 0.124594
vt 0.308977 0.540358
vt 0.347663 0.574783
vt 0.416537 0.545048
vt 0.454493 0.490933
vt 0.280247 0.458523
vt 0.477275 0.413991
vt 0.269812 0.327627
vt 0.501811 0.307812
vt 0.478911 0.194535
vt 0.289445 0.192622
vt 0.411190 0.148784
vt 0.344825 0.160983
vt 0.638366 1.000000
vt 0.585320 0.968846
vt 0.753673 0.888086
vt 0.716428 0.957713
vt 0.535455 0.881851
vt 0.764045 0.803259
vt 0.512546 0.742810
vt 0.762804 0.688678
vt 0.715156 0.569124
vt 0.505964 0.589608
vt 0.558801 0.541273
vt 0.633722 0.524619
vt 0.559830 0.524921
vt 0.482953 0.609183
vt 0.297281 0.679414
vt 0.229781 0.618878
vt 0.589388 0.424422
vt 0.171023 0.493732
vt 0.601530 0.283410
vt 0.163905 0.300566
vt 0.210996 0.092890
vt 0.561450 0.126634
vt 0.247606 0.000000
vt 0.473493 0.014515
vt 0.013942 0.000000
vt 0.064309 0.000000
vt 0.064309 0.057400
vt 0.013942 0.057400
vt 0.076444 0.000000
vt 0.076444 0.057400
vt 0.124947 0.000000
vt 0.124947 0.057400
vt 0.000000 0.000000
vt 0.000000 0.057400
vt 0.064309 0.109018
vt 0.013942 0.109018
vt 0.076444 0.109018
vt 0.124947 0.109018
vt 0.000000 0.109018
vt 0.064309 0.163348
vt 0.013942 0.163348
vt 0.076444 0.163348
vt 0.124947 0.163348
vt 0.000000 0.163348
vt 0.064309 0.308268
vt 0.013942 0.308268
vt 0.076444 0.308268
vt 0.124947 0.308268
vt 0.000000 0.308268
vt 0.064309 0.549900
vt 0.013942 0.549900
vt 0.076444 0.549900
vt 0.124947 0.549900
vt 0.000000 0.549900
vt 0.013942 0.631634
vt 0.064309 0.631634
vt 0.064309 0.695735
vt 0.013942 0.695735
vt 0.076444 0.631634
vt 0.076444 0.695735
vt 0.124947 0.631634
vt 0.124947 0.695735
vt 0.000000 0.631634
vt 0.000000 0.695735
vt 0.064309 0.840792
vt 0.013942 0.840792
vt 0.076444 0.840792
vt 0.124947 0.840792
vt 0.000000 0.840792
vt 0.064309 1.000000
vt 0.013942 1.000000
vt 0.076444 1.000000
vt 0.124947 1.000000
vt 0.000000 1.000000
vn 0.546112 0.071184 -0.834682
vn 0.040413 -0.187130 -0.981504
vn -0.077741 0.412620 -0.907580
vn 0.251101 0.480042 -0.840541
vn -0.178616 -0.137193 -0.974307
vn -0.205836 0.275502 -0.939005
vn -0.343335 -0.124235 -0.930960
vn -0.341100 0.176662 -0.923277
vn -0.457159 -0.177706 -0.871450
vn -0.478962 0.073647 -0.874741
vn -0.672395 -0.161672 -0.722321
vn -0.703113 -0.139080 -0.697344
vn 0.259903 -0.426535 0.866325
vn 0.013093 0.033345 0.999358
vn 0.185267 -0.071375 0.980093
vn 0.267480 -0.296870 0.916691
vn 0.221786 -0.050910 0.973765
vn 0.233217 -0.309925 0.921714
vn 0.348329 0.071372 0.934651
vn 0.320033 -0.212177 0.923341
vn 0.462880 -0.096914 0.881107
vn 0.416276 0.184941 0.890231
vn 0.754666 0.139719 0.641060
vn 0.644654 0.500034 0.578262
vn 0.111247 0.057419 -0.992133
vn 0.486437 -0.431586 -0.759679
vn 0.001529 0.073324 -0.997307
vn 0.226001 0.151157 -0.962328
vn 0.263081 0.869239 -0.418583
vn -0.095645 0.450913 -0.887429
vn 0.063728 0.245296 -0.967351
vn -0.073212 0.474696 -0.877099
vn 0.056698 -0.623390 -0.779853
vn -0.187331 -0.043242 -0.981345
vn 0.063414 0.876752 -0.476745
vn -0.054877 0.471119 -0.880361
vn -0.279790 -0.772203 -0.570455
vn -0.380514 -0.235395 -0.894314
vn -0.200602 0.862620 -0.464376
vn -0.203531 0.486297 -0.849759
vn -0.663846 0.679796 -0.311747
vn -0.554997 0.339633 -0.759360
vn -0.593692 -0.763522 -0.254095
vn -0.590537 -0.437754 -0.677965
vn -0.765537 -0.564310 -0.309043
vn -0.911951 -0.049616 -0.407289
vn -0.849373 -0.058047 -0.524591
vn -0.823754 -0.261246 -0.503170
vn 0.137006 -0.200993 -0.969965
vn 0.143184 0.038222 -0.988958
vn 0.125050 0.442142 -0.888186
vn -0.010963 0.551147 -0.834336
vn -0.083540 -0.360172 -0.929138
vn -0.021064 0.557896 -0.829644
vn -0.308910 -0.328877 -0.892421
vn -0.228043 0.381572 -0.895767
vn -0.387666 -0.008186 -0.921764
vn -0.412114 0.116480 -0.903656
vn -0.345984 -0.127367 -0.929555
vn -0.321843 0.011797 -0.946720
vn -0.672923 -0.691275 -0.263276
vn -0.850186 -0.345983 -0.396838
vn 0.819328 0.374735 0.433907
vn 0.579505 0.775683 0.249979
vn -0.678249 -0.712421 0.180094
vn -0.871939 -0.451797 0.188683
vn 0.867571 0.454540 -0.201778
vn 0.495987 0.824274 -0.273073
vn -0.409869 -0.308356 0.858443
vn -0.537543 -0.070055 0.840322
vn 0.611431 -0.118458 -0.782381
vn 0.281111 0.365238 -0.887456
vn -0.024022 -0.018588 0.999539
vn -0.175136 0.316665 0.932229
vn 0.210207 -0.389865 -0.896559
vn -0.042913 0.067619 -0.996788
vn 0.265437 0.173896 0.948316
vn 0.005983 0.531324 0.847148
vn 0.007090 -0.602374 -0.798183
vn -0.160497 -0.214230 -0.963507
vn 0.093477 0.942869 0.319782
vn 0.339649 0.874805 0.345477
vn 0.305202 0.770154 -0.560102
vn -0.068335 0.746088 -0.662331
vn 0.100387 -0.994391 -0.033300
vn 0.465054 -0.815840 0.343700
vn -0.330095 -0.881787 -0.336883
vn -0.217335 -0.652036 0.726371
vn 0.211006 0.273654 -0.938398
vn -0.119039 0.548517 -0.827623
vn 0.284401 -0.623087 0.728615
vn -0.138895 -0.303673 0.942598
s 1
g polySurface1
usemtl initialShadingGroup
f 37/1/1 38/2/2 39/3/3 40/4/4
f 39/3/3 38/2/2 41/5/5 42/6/6
f 42/6/6 41/5/5 43/7/7 44/8/8
f 45/9/9 46/10/10 44/8/8 43/7/7
f 47/11/11 48/12/12 46/10/10 45/9/9
f 50/13/13 49/14/14 51/15/15 52/16/16
f 51/15/15 53/17/17 54/18/18 52/16/16
f 53/17/17 55/19/19 56/20/20 54/18/18
f 57/21/21 56/20/20 55/19/19 58/22/22
f 59/23/23 57/21/21 58/22/22 60/24/24
f 1/25/25 2/26/26 14/27/27 13/28/28
f 3/29/29 4/30/30 16/31/31 15/32/32
f 4/30/30 1/25/25 13/28/28 16/31/31
f 2/26/26 5/33/33 17/34/34 14/27/27
f 6/35/35 3/29/29 15/32/32 18/36/36
f 5/33/33 7/37/37 19/38/38 17/34/34
f 8/39/39 6/35/35 18/36/36 20/40/40
f 9/41/41 8/39/39 20/40/40 22/42/42
f 7/37/37 10/43/43 21/44/44 19/38/38
f 12/45/45 11/46/46 24/47/47 23/48/48
f 11/46/46 9/41/41 22/42/42 24/47/47
f 10/43/43 12/45/45 23/48/48 21/44/44
f 13/28/28 14/27/27 26/49/49 25/50/50
f 15/32/32 16/31/31 28/51/51 27/52/52
f 16/31/31 13/28/28 25/50/50 28/51/51
f 14/27/27 17/34/34 29/53/53 26/49/49
f 18/36/36 15/32/32 27/52/52 30/54/54
f 17/34/34 19/38/38 31/55/55 29/53/53
f 20/40/40 18/36/36 30/54/54 32/56/56
f 22/42/42 20/40/40 32/56/56 34/57/57
f 19/38/38 21/44/44 33/58/58 31/55/55
f 23/48/48 24/47/47 36/59/59 35/60/60
f 24/47/47 22/42/42 34/57/57 36/59/59
f 21/44/44 23/48/48 35/60/60 33/58/58
f 25/61/50 26/62/49 38/2/2 37/1/1
f 27/63/52 28/64/51 40/4/4 39/3/3
f 28/64/51 25/61/50 37/1/1 40/4/4
f 26/62/49 29/65/53 41/5/5 38/2/2
f 30/66/54 27/63/52 39/3/3 42/6/6
f 29/65/53 31/67/55 43/7/7 41/5/5
f 32/68/56 30/66/54 42/6/6 44/8/8
f 34/69/57 32/68/56 44/8/8 46/10/10
f 31/67/55 33/70/58 45/9/9 43/7/7
f 35/71/60 36/72/59 48/12/12 47/11/11
f 36/72/59 34/69/57 46/10/10 48/12/12
f 33/70/58 35/71/60 47/11/11 45/9/9
f 4/30/30 3/29/29 51/73/15 49/74/14
f 2/26/26 1/25/25 50/75/13 52/76/16
f 3/29/29 6/35/35 53/77/17 51/73/15
f 5/33/33 2/26/26 52/76/16 54/78/18
f 6/35/35 8/39/39 55/79/19 53/77/17
f 7/37/37 5/33/33 54/78/18 56/80/20
f 10/43/43 7/37/37 56/80/20 57/81/21
f 8/39/39 9/41/41 58/82/22 55/79/19
f 12/45/45 10/43/43 57/81/21 59/83/23
f 9/41/41 11/46/46 60/84/24 58/82/22
f 11/85/46 12/86/45 61/87/61 62/88/62
f 12/86/45 59/89/23 63/90/63 61/87/61
f 59/89/23 60/91/24 64/92/64 63/90/63
f 60/93/24 11/85/46 62/88/62 64/94/64
f 62/88/62 61/87/61 65/95/65 66/96/66
f 61/87/61 63/90/63 67/97/67 65/95/65
f 63/90/63 64/92/64 68/98/68 67/97/67
f 64/94/64 62/88/62 66/96/66 68/99/68
f 66/96/66 65/95/65 69/100/69 70/101/70
f 65/95/65 67/97/67 71/102/71 69/100/69
f 67/97/67 68/98/68 72/103/72 71/102/71
f 68/99/68 66/96/66 70/101/70 72/104/72
f 70/101/70 69/100/69 73/105/73 74/106/74
f 69/100/69 71/102/71 75/107/75 73/105/73
f 71/102/71 72/103/72 76/108/76 75/107/75
f 72/104/72 70/101/70 74/106/74 76/109/76
f 74/106/74 73/105/73 77/110/77 78/111/78
f 73/105/73 75/107/75 79/112/79 77/110/77
f 75/107/75 76/108/76 80/113/80 79/112/79
f 76/109/76 74/106/74 78/111/78 80/114/80
f 92/115/81 89/116/82 81/117/83 82/118/84
f 89/116/82 90/119/85 83/120/86 81/117/83
f 90/119/85 91/121/87 84/122/88 83/120/86
f 91/123/87 92/115/81 82/118/84 84/124/88
f 82/118/84 81/117/83 85/125/89 86/126/90
f 81/117/83 83/120/86 87/127/91 85/125/89
f 83/120/86 84/122/88 88/128/92 87/127/91
f 84/124/88 82/118/84 86/126/90 88/129/92
f 77/110/77 79/112/79 90/119/85 89/116/82
f 79/112/79 80/113/80 91/121/87 90/119/85
f 80/114/80 78/111/78 92/115/81 91/123/87
f 78/111/78 77/110/77 89/116/82 92/115/81
f 86/126/90 85/125/89 1/130/25 4/131/30
f 85/125/89 87/127/91 50/132/13 1/130/25
f 87/127/91 88/128/92 49/133/14 50/132/13
f 88/129/92 86/126/90 4/131/30 49/134/14
