# This file uses meters as units for non-parametric coordinates.

mtllib tinyOffHandKnife.mtl
g default
v 1.325000 8.078718 -0.700000
v -1.325000 8.078718 -0.700000
v 1.325000 8.078718 0.700000
v -1.325000 8.078718 0.700000
v 1.325000 2.778718 0.700000
v -1.325000 2.778718 0.700000
v 1.325000 2.778718 -0.700000
v -1.325000 2.778718 -0.700000
v 1.327674 1.619593 0.700000
v -2.048712 1.619593 0.700000
v -2.048712 1.619593 -0.700000
v 1.327674 1.619593 -0.700000
v 1.312945 0.436256 0.700000
v -3.572320 0.436256 0.700000
v -3.572320 0.436256 -0.700000
v 1.312945 0.436256 -0.700000
v 1.325000 5.428718 0.700000
v -1.006261 5.428718 0.700000
v -1.006261 5.428718 -0.700000
v 1.325000 5.428718 -0.700000
v 1.328950 9.088056 -0.700000
v -1.724435 9.088056 -0.700000
v -1.724435 9.088056 0.700000
v 1.328950 9.088056 0.700000
v 0.969224 9.096826 0.000000
v -1.364709 9.096826 0.000000
v 2.425306 11.474987 0.000000
v -2.820791 11.474987 0.000000
v 1.780701 15.527922 0.000000
v -2.176186 15.527922 0.000000
v -0.197742 25.484007 0.000000
v 1.652550 8.078718 0.000000
v 1.643752 9.088056 0.000000
v -2.070963 9.088056 0.000000
v -1.684277 8.078718 0.000000
v -1.365538 5.428718 0.000000
v -1.684277 2.778718 -0.000000
v -2.407988 1.619593 -0.000000
v -3.931597 0.436256 -0.000000
v 1.640494 0.436256 -0.000000
v 1.655224 1.619593 -0.000000
v 1.652550 2.778718 -0.000000
v 1.652550 5.428718 0.000000
v -0.197742 11.474987 -0.881664
v -0.197742 15.527922 -0.881664
v -0.197742 11.474987 0.881664
v -0.197742 15.527922 0.881664
v 0.526844 -0.140065 0.700000
v -2.796365 -0.140065 0.700000
v -3.040763 -0.140065 -0.000000
v 0.749660 -0.140065 -0.000000
v -2.796365 -0.140065 -0.700000
v 0.526844 -0.140065 -0.700000
vt 3.992279 1.547835
vt 5.433739 1.547835
vt 5.433739 3.298167
vt 3.992279 3.298167
vt 3.992279 0.520783
vt 3.992279 0.520783
vt 3.992279 1.547835
vt 3.992279 3.298167
vt 3.992279 7.597883
vt 7.446181 6.293617
vt 5.585615 6.293617
vt 5.585615 4.585099
vt 7.446181 4.585099
vt 7.446181 7.296134
vt 7.446181 7.296134
vt 7.446181 6.293617
vt 7.446181 4.585099
vt 7.446181 0.388105
vt 8.400613 2.006376
vt 8.400613 0.398019
vt 9.098551 0.587503
vt 9.098551 1.816892
vt 9.098551 0.215485
vt 9.098551 2.172197
vt 9.796489 0.398019
vt 9.796489 2.006376
vt 7.769510 8.804743
vt 7.038691 8.804743
vt 7.038691 8.073925
vt 7.769510 8.073925
vt 7.038691 9.535561
vt 7.769510 9.535561
vt 6.307873 8.804743
vt 6.307873 8.073925
vt 7.038691 7.754260
vt 7.769510 7.754260
vt 6.307873 9.535561
vt 7.038691 9.813916
vt 7.769510 9.813916
vt 6.307873 7.754260
vt 6.307873 9.813916
vt 8.945581 9.159279
vt 8.945581 8.428461
vt 9.676400 8.428461
vt 9.676400 9.159279
vt 8.214764 9.159279
vt 8.214764 8.428461
vt 8.945581 7.697643
vt 9.676400 7.697643
vt 8.945581 9.478944
vt 9.676400 9.478944
vt 8.214764 7.697643
vt 8.214764 9.478944
vt 8.945581 7.419287
vt 9.676400 7.419287
vt 8.945581 9.805285
vt 9.676400 9.805285
vt 8.214764 7.419287
vt 8.214764 9.805285
vt 1.640407 9.825119
vt 1.640407 8.363482
vt 2.890561 8.539287
vt 2.890561 9.825119
vt 1.093582 9.826592
vt 1.093582 7.964310
vt 4.140715 8.363482
vt 4.140715 9.825119
vt 0.535335 9.818470
vt 0.535335 7.123947
vt 4.616878 8.143169
vt 4.616878 9.827295
vt 0.263451 9.384886
vt 0.263451 7.551934
vt 5.244214 9.533248
vt 5.442376 8.802428
vt 6.282740 8.802428
vt 6.084577 9.533248
vt 5.244214 8.071611
vt 6.084577 8.071611
vt 9.610038 2.460159
vt 9.808202 3.190978
vt 9.316853 3.190978
vt 9.182052 2.460159
vt 9.610038 3.921799
vt 9.182052 3.921799
vt 8.542672 3.190978
vt 8.723335 2.460159
vt 9.156919 2.460159
vt 9.034022 3.190978
vt 8.723335 3.921799
vt 9.156919 3.921799
vt 3.570547 4.582873
vt 2.002009 4.575755
vt 1.793640 3.232637
vt 3.576636 3.240727
vt 3.564457 5.925016
vt 1.781460 5.916926
vt 1.309370 2.643365
vt 3.581099 2.653673
vt 3.564795 6.436227
vt 1.510390 6.426906
vt 0.286962 2.039390
vt 3.573909 2.054304
vt 0.810373 1.749868
vt 3.046323 1.760013
vt 8.461628 6.504717
vt 8.461628 4.804381
vt 9.139572 4.679334
vt 9.139572 6.618721
vt 9.817516 4.804381
vt 9.817516 6.504717
vn -0.000000 -0.000000 1.000000
vn -0.000000 -0.000000 1.000000
vn -0.000000 -0.000000 1.000000
vn -0.000000 -0.000000 1.000000
vn -0.000000 -1.000000 -0.000000
vn -0.000000 -1.000000 -0.000000
vn -0.000000 -1.000000 -0.000000
vn -0.000000 -1.000000 -0.000000
vn 0.000000 0.000000 -1.000000
vn 0.000000 0.000000 -1.000000
vn 0.000000 0.000000 -1.000000
vn 0.000000 0.000000 -1.000000
vn -0.889661 0.000000 0.456621
vn -1.000000 0.000000 0.000000
vn -0.992844 0.119418 0.000000
vn -0.884611 0.106400 0.454029
vn 1.000000 0.000702 0.000000
vn 1.000000 -0.000000 -0.000000
vn 0.905745 -0.000000 0.423824
vn 0.905744 0.000635 0.423824
vn -0.000000 -0.000000 1.000000
vn -0.000000 -0.000000 1.000000
vn -0.000000 -0.000000 1.000000
vn -0.000000 -0.000000 1.000000
vn -0.777733 0.485585 0.399173
vn -0.848242 0.529609 0.000000
vn -0.704839 0.709367 0.000000
vn -0.691172 0.629632 0.354745
vn 0.000000 0.000000 -1.000000
vn 0.000000 0.000000 -1.000000
vn 0.000000 0.000000 -1.000000
vn 0.000000 0.000000 -1.000000
vn 0.999987 -0.005135 -0.000000
vn 1.000000 0.000702 0.000000
vn 0.905744 0.000635 0.423824
vn 0.905735 -0.004672 0.423819
vn -0.000000 -0.000000 1.000000
vn -0.000000 -0.000000 1.000000
vn 0.000000 0.000000 1.000000
vn 0.000000 0.000000 1.000000
vn -0.691172 0.629632 0.354745
vn -0.704839 0.709367 0.000000
vn -0.613394 0.789777 0.000000
vn -0.585084 0.753326 0.300295
vn 0.000000 0.000000 -1.000000
vn 0.000000 0.000000 -1.000000
vn 0.000000 0.000000 -1.000000
vn 0.000000 0.000000 -1.000000
vn 0.917068 -0.398731 -0.000000
vn 0.999987 -0.005135 -0.000000
vn 0.905735 -0.004672 0.423819
vn 0.823256 -0.436337 0.363125
vn -0.000000 -0.000000 1.000000
vn -0.000000 -0.000000 1.000000
vn -0.000000 -0.000000 1.000000
vn -0.000000 -0.000000 1.000000
vn -0.980186 -0.198080 -0.000000
vn -1.000000 0.000000 0.000000
vn -0.889661 0.000000 0.456621
vn -0.878401 -0.164114 0.448864
vn 0.000000 0.000000 -1.000000
vn 0.000000 0.000000 -1.000000
vn 0.000000 0.000000 -1.000000
vn 0.000000 0.000000 -1.000000
vn 0.905745 -0.000000 0.423824
vn 1.000000 -0.000000 -0.000000
vn 1.000000 0.000661 0.000000
vn 0.906616 0.000600 0.421957
vn 0.000000 0.000000 -1.000000
vn 0.000000 0.000000 -1.000000
vn 0.000000 0.684094 -0.729394
vn 0.000000 0.477550 -0.878605
vn -0.997937 -0.064194 -0.000000
vn -0.980186 -0.198080 -0.000000
vn -0.878401 -0.164114 0.448864
vn -0.865618 -0.245502 0.436388
vn -0.000000 -0.000000 1.000000
vn -0.000000 -0.000000 1.000000
vn 0.000000 0.477550 0.878605
vn 0.000000 0.684094 0.729394
vn 0.906616 0.000600 0.421957
vn 1.000000 0.000661 0.000000
vn 0.961668 0.274216 -0.000000
vn 0.904541 0.097822 0.415013
vn 0.000000 0.477550 -0.878605
vn 0.000000 0.684094 -0.729394
vn 0.000000 0.999922 -0.012529
vn 0.000000 0.999922 -0.012529
vn -0.012418 0.999923 0.000000
vn -0.997937 -0.064194 -0.000000
vn -0.865618 -0.245502 0.436388
vn 0.000000 0.684094 0.729394
vn 0.000000 0.477550 0.878605
vn 0.000000 0.999922 0.012529
vn 0.000000 0.999922 0.012529
vn 0.904541 0.097822 0.415013
vn 0.961668 0.274216 -0.000000
vn 0.013002 0.999915 0.000000
vn -0.000000 -0.248532 -0.968624
vn -0.000000 -0.248532 -0.968624
vn -0.227825 -0.078364 -0.970544
vn -0.000000 -0.078912 -0.996882
vn 0.227825 -0.078364 -0.970544
vn -0.000000 -0.248532 0.968624
vn -0.000000 -0.248532 0.968624
vn 0.227825 -0.078364 0.970544
vn -0.000000 -0.078912 0.996882
vn -0.227825 -0.078364 0.970544
vn 0.227825 -0.078364 -0.970544
vn -0.000000 -0.078912 -0.996882
vn 0.000000 0.058165 -0.998307
vn 0.378856 0.051192 -0.924039
vn -0.227825 -0.078364 0.970544
vn -0.000000 -0.078912 0.996882
vn 0.000000 0.058165 0.998307
vn -0.378856 0.051192 0.924039
vn 0.000000 0.088210 -0.996102
vn 0.000000 0.058165 -0.998307
vn -0.378856 0.051192 -0.924039
vn 0.000000 0.088210 0.996102
vn 0.000000 0.058165 0.998307
vn 0.378856 0.051192 0.924039
vn 0.961668 0.274216 -0.000000
vn 1.000000 0.000661 0.000000
vn 0.906616 0.000600 -0.421957
vn 0.904541 0.097822 -0.415013
vn 0.013002 0.999915 0.000000
vn 0.961668 0.274216 -0.000000
vn 0.904541 0.097822 -0.415013
vn -0.865618 -0.245502 -0.436388
vn -0.997937 -0.064194 -0.000000
vn -0.012418 0.999923 0.000000
vn -0.878401 -0.164114 -0.448864
vn -0.980186 -0.198080 -0.000000
vn -0.997937 -0.064194 -0.000000
vn -0.865618 -0.245502 -0.436388
vn -0.878401 -0.164114 -0.448864
vn -0.889661 0.000000 -0.456621
vn -1.000000 0.000000 0.000000
vn -0.980186 -0.198080 -0.000000
vn -0.992844 0.119418 0.000000
vn -1.000000 0.000000 0.000000
vn -0.889661 0.000000 -0.456621
vn -0.884611 0.106400 -0.454029
vn -0.704839 0.709367 0.000000
vn -0.848242 0.529609 0.000000
vn -0.777733 0.485585 -0.399173
vn -0.691172 0.629632 -0.354745
vn -0.613394 0.789777 0.000000
vn -0.704839 0.709367 0.000000
vn -0.691172 0.629632 -0.354745
vn -0.585084 0.753326 -0.300295
vn -0.000000 -1.000000 -0.000000
vn -0.000000 -1.000000 -0.000000
vn -0.000000 -1.000000 -0.000000
vn -0.000000 -1.000000 -0.000000
vn 0.905735 -0.004672 -0.423819
vn 0.999987 -0.005135 -0.000000
vn 0.917068 -0.398731 -0.000000
vn 0.823256 -0.436337 -0.363125
vn 0.905744 0.000635 -0.423824
vn 1.000000 0.000702 0.000000
vn 0.999987 -0.005135 -0.000000
vn 0.905735 -0.004672 -0.423819
vn 0.905744 0.000635 -0.423824
vn 0.905745 -0.000000 -0.423824
vn 1.000000 -0.000000 -0.000000
vn 1.000000 0.000702 0.000000
vn 1.000000 0.000661 0.000000
vn 1.000000 -0.000000 -0.000000
vn 0.905745 -0.000000 -0.423824
vn 0.906616 0.000600 -0.421957
vn 0.000000 0.058165 -0.998307
vn -0.000000 -0.078912 -0.996882
vn -0.227825 -0.078364 -0.970544
vn -0.378856 0.051192 -0.924039
vn 0.000000 0.058165 0.998307
vn -0.000000 -0.078912 0.996882
vn 0.227825 -0.078364 0.970544
vn 0.378856 0.051192 0.924039
vn 0.378856 0.051192 -0.924039
vn 0.000000 0.058165 -0.998307
vn 0.000000 0.088210 -0.996102
vn -0.378856 0.051192 0.924039
vn 0.000000 0.058165 0.998307
vn 0.000000 0.088210 0.996102
vn 0.000000 0.000000 1.000000
vn 0.000000 0.000000 1.000000
vn 0.000000 0.000000 1.000000
vn 0.000000 0.000000 1.000000
vn -0.552409 -0.798816 0.238197
vn -0.552409 -0.798816 0.238197
vn -0.552409 -0.798816 0.238197
vn -0.552409 -0.798816 0.238197
vn 0.917068 -0.398731 -0.000000
vn 0.823256 -0.436337 0.363125
vn 0.552903 -0.804397 0.217356
vn 0.552903 -0.804397 0.217356
vn -0.552409 -0.798816 -0.238197
vn -0.552409 -0.798816 -0.238197
vn -0.552409 -0.798816 -0.238197
vn -0.552409 -0.798816 -0.238197
vn 0.000000 0.000000 -1.000000
vn 0.000000 0.000000 -1.000000
vn 0.000000 0.000000 -1.000000
vn 0.000000 0.000000 -1.000000
vn 0.823256 -0.436337 -0.363125
vn 0.917068 -0.398731 -0.000000
vn 0.552903 -0.804397 -0.217356
vn 0.552903 -0.804397 -0.217356
s off
g TinyOffHandKnife WristControl_R ElbowControl_R ShoulderControl_R ClavicleControl_R Spine03Control Spine02Control Spine01Control ROOTCONTROL
usemtl TinyOffHandKnifeSG
f 17/92/1 18/93/2 6/94/3 5/95/4
f 48/106/5 49/107/6 50/108/7 51/109/8
f 7/60/9 8/61/10 19/62/11 20/63/12
f 18/27/13 36/28/14 37/29/15 6/30/16
f 42/42/17 43/43/18 17/44/19 5/45/20
f 5/95/21 6/94/22 10/98/23 9/99/24
f 6/30/25 37/29/26 38/35/27 10/36/28
f 8/61/29 7/60/30 12/64/31 11/65/32
f 41/50/33 42/42/34 5/45/35 9/51/36
f 9/99/37 10/98/38 14/102/39 13/103/40
f 10/74/41 38/75/42 39/76/43 14/77/44
f 11/65/45 12/64/46 16/68/47 15/69/48
f 40/56/49 41/50/50 9/51/51 13/57/52
f 3/96/53 4/97/54 18/93/55 17/92/56
f 35/31/57 36/28/58 18/27/59 4/32/60
f 20/63/61 19/62/62 2/66/63 1/67/64
f 17/44/65 43/43/66 32/48/67 3/49/68
f 1/67/69 2/66/70 22/70/71 21/71/72
f 34/38/73 35/31/74 4/32/75 23/39/76
f 4/97/77 3/96/78 24/100/79 23/101/80
f 3/49/81 32/48/82 33/54/83 24/55/84
f 21/19/85 22/20/86 26/21/87 25/22/88
f 26/21/89 34/23/90 23/25/91
f 23/25/92 24/26/93 25/22/94 26/21/95
f 24/26/96 33/24/97 25/22/98
f 25/14/99 26/15/100 28/16/101 44/11/102 27/10/103
f 26/5/104 25/6/105 27/7/106 46/2/107 28/1/108
f 27/10/109 44/11/110 45/12/111 29/13/112
f 28/1/113 46/2/114 47/3/115 30/4/116
f 31/18/117 45/12/118 30/17/119
f 31/9/120 47/3/121 29/8/122
f 33/54/123 32/48/124 1/52/125 21/58/126
f 25/22/127 33/24/128 21/19/129
f 22/20/130 34/23/131 26/21/132
f 2/37/133 35/31/134 34/38/135 22/41/136
f 2/37/137 19/33/138 36/28/139 35/31/140
f 37/29/141 36/28/142 19/33/143 8/34/144
f 38/35/145 37/29/146 8/34/147 11/40/148
f 39/76/149 38/75/150 11/78/151 15/79/152
f 51/109/153 50/108/154 52/110/155 53/111/156
f 12/53/157 41/50/158 40/56/159 16/59/160
f 7/46/161 42/42/162 41/50/163 12/53/164
f 7/46/165 20/47/166 43/43/167 42/42/168
f 32/48/169 43/43/170 20/47/171 1/52/172
f 45/12/173 44/11/174 28/16/175 30/17/176
f 47/3/177 46/2/178 27/7/179 29/8/180
f 29/13/181 45/12/182 31/18/183
f 30/4/184 47/3/185 31/9/186
f 13/103/187 14/102/188 49/104/189 48/105/190
f 14/80/191 39/81/192 50/82/193 49/83/194
f 40/86/195 13/87/196 48/88/197 51/89/198
f 39/81/199 15/84/200 52/85/201 50/82/202
f 15/69/203 16/68/204 53/72/205 52/73/206
f 16/90/207 40/86/208 51/89/209 53/91/210
