# 3ds Max Wavefront OBJ Exporter v0.97b - (c)2007 guruware
# File Created: 26.10.2017 13:36:56

mtllib FireShooter.mtl

#
# object Cylinder001
#

v  18.6263 -1.0131 19.2597
v  -0.5095 -1.0131 27.1860
v  -19.6453 -1.0131 19.2597
v  -27.5716 -1.0131 0.1240
v  -19.6453 -1.0131 -19.0118
v  -0.5095 -1.0131 -26.9381
v  18.6263 -1.0131 -19.0118
v  26.5526 -1.0131 0.1240
v  17.5285 5.4890 -17.9141
v  25.0001 5.4890 0.1240
v  -0.5095 5.4890 -25.3857
v  -18.5475 5.4890 -17.9141
v  -26.0191 5.4890 0.1240
v  -18.5475 5.4890 18.1620
v  -0.5095 5.4890 25.6336
v  17.5285 5.4890 18.1620
v  4.0017 9.0737 4.6351
v  5.8703 9.0737 0.1240
v  4.0017 9.0737 -4.3872
v  -0.5095 9.0737 -6.2558
v  -5.0207 9.0737 -4.3872
v  -6.8893 9.0737 0.1239
v  -5.0207 9.0737 4.6351
v  -0.5095 9.0737 6.5037
v  13.4187 8.3104 -13.8043
v  19.1880 8.3104 0.1240
v  -0.5095 8.3104 -19.5735
v  -14.4377 8.3104 -13.8043
v  -20.2070 8.3104 0.1240
v  -14.4377 8.3104 14.0522
v  -0.5095 8.3104 19.8214
v  13.4187 8.3104 14.0522
v  10.6631 12.6258 -11.0487
v  15.2910 12.6258 0.1240
v  -0.5095 12.6258 -15.6765
v  -11.6821 12.6258 -11.0487
v  -16.3100 12.6258 0.1240
v  -11.6821 12.6258 11.2966
v  -0.5095 12.6258 15.9244
v  10.6631 12.6258 11.2966
v  8.4431 13.4681 -8.8286
v  12.1513 13.4681 0.1240
v  -0.5095 13.4681 -12.5369
v  -9.4621 13.4681 -8.8286
v  -13.1703 13.4681 0.1240
v  -9.4621 13.4681 9.0765
v  -0.5095 13.4681 12.7848
v  8.4431 13.4681 9.0765
v  11.6707 19.2917 -12.0563
v  16.7159 19.2917 0.1240
v  -0.5095 19.2917 -17.1015
v  -12.6897 19.2917 -12.0563
v  -17.7349 19.2917 0.1240
v  -12.6897 19.2917 12.3042
v  -0.5095 19.2917 17.3494
v  11.6707 19.2917 12.3042
v  10.0510 20.9816 -10.4366
v  14.4253 20.9816 0.1240
v  -0.5095 20.9816 -14.8109
v  -11.0700 20.9816 -10.4366
v  -15.4444 20.9816 0.1240
v  -11.0700 20.9816 10.6845
v  -0.5095 20.9816 15.0588
v  10.0510 20.9816 10.6845
v  6.9191 20.9816 -7.3047
v  9.9961 20.9816 0.1240
v  -0.5095 20.9816 -10.3817
v  -7.9381 20.9816 -7.3047
v  -11.0151 20.9816 0.1240
v  -7.9381 20.9816 7.5526
v  -0.5095 20.9816 10.6296
v  6.9191 20.9816 7.5526
# 72 vertices

vn 0.5949 -0.5405 0.5949
vn 0.0000 -0.5405 0.8413
vn -0.5949 -0.5405 0.5949
vn -0.8413 -0.5405 0.0000
vn -0.5949 -0.5405 -0.5949
vn 0.0000 -0.5405 -0.8413
vn 0.5949 -0.5405 -0.5949
vn 0.8413 -0.5405 0.0000
vn 0.5763 0.5794 -0.5763
vn 0.8151 0.5794 0.0000
vn -0.0000 0.5794 -0.8151
vn -0.5763 0.5794 -0.5763
vn -0.8151 0.5794 0.0000
vn -0.5763 0.5794 0.5763
vn 0.0000 0.5794 0.8151
vn 0.5763 0.5794 0.5763
vn -0.4673 0.7505 -0.4673
vn -0.6608 0.7505 0.0000
vn -0.4673 0.7505 0.4673
vn 0.0000 0.7505 0.6608
vn 0.4673 0.7505 0.4673
vn 0.6608 0.7505 0.0000
vn 0.4673 0.7505 -0.4673
vn 0.0000 0.7505 -0.6608
vn 0.4020 0.8227 -0.4020
vn 0.5685 0.8227 0.0000
vn -0.0000 0.8227 -0.5685
vn -0.4020 0.8227 -0.4020
vn -0.5685 0.8227 0.0000
vn -0.4020 0.8227 0.4020
vn 0.0000 0.8227 0.5685
vn 0.4020 0.8227 0.4020
vn 0.4027 0.8220 -0.4027
vn 0.5695 0.8220 -0.0000
vn 0.0000 0.8220 -0.5695
vn -0.4027 0.8220 -0.4027
vn -0.5695 0.8220 0.0000
vn -0.4027 0.8220 0.4027
vn -0.0000 0.8220 0.5695
vn 0.4027 0.8220 0.4027
vn 0.6479 0.4004 -0.6479
vn 0.9163 0.4004 0.0000
vn -0.0000 0.4004 -0.9163
vn -0.6479 0.4004 -0.6479
vn -0.9163 0.4004 0.0000
vn -0.6479 0.4004 0.6479
vn 0.0000 0.4004 0.9163
vn 0.6479 0.4004 0.6479
vn 0.7023 0.1161 -0.7023
vn 0.9932 0.1161 -0.0000
vn 0.0000 0.1161 -0.9932
vn -0.7023 0.1161 -0.7023
vn -0.9932 0.1161 0.0000
vn -0.7023 0.1161 0.7023
vn -0.0000 0.1161 0.9932
vn 0.7023 0.1161 0.7023
vn 0.2681 0.9253 -0.2681
vn 0.3792 0.9253 -0.0000
vn -0.0000 0.9253 -0.3792
vn -0.2681 0.9253 -0.2681
vn -0.3792 0.9253 0.0000
vn -0.2681 0.9253 0.2681
vn -0.0000 0.9253 0.3792
vn 0.2681 0.9253 0.2681
vn -0.3306 0.8840 0.3306
vn -0.4676 0.8840 0.0000
vn 0.0000 0.8840 0.4676
vn 0.3306 0.8840 0.3306
vn 0.4676 0.8840 -0.0000
vn 0.3306 0.8840 -0.3306
vn 0.0000 0.8840 -0.4676
vn -0.3306 0.8840 -0.3306
# 72 vertex normals

vt 0.2823 0.3877 0.0000
vt 0.1300 0.3890 0.0000
vt 0.0213 0.2823 0.0000
vt 0.0200 0.1300 0.0000
vt 0.1268 0.0213 0.0000
vt 0.2791 0.0200 0.0000
vt 0.3877 0.1268 0.0000
vt 0.3890 0.2791 0.0000
vt 0.5921 0.5563 0.0000
vt 0.6056 0.4046 0.0000
vt 0.6540 0.4133 0.0000
vt 0.6412 0.5563 0.0000
vt 0.9730 0.4530 0.0000
vt 0.8213 0.4665 0.0000
vt 0.8213 0.4173 0.0000
vt 0.9643 0.4046 0.0000
vt 0.6696 0.4530 0.0000
vt 0.6783 0.4046 0.0000
vt 0.3832 0.6607 0.0000
vt 0.3968 0.8124 0.0000
vt 0.3476 0.8124 0.0000
vt 0.3349 0.6694 0.0000
vt 0.3832 0.9641 0.0000
vt 0.3349 0.9554 0.0000
vt 0.4046 0.2718 0.0000
vt 0.5563 0.2583 0.0000
vt 0.5563 0.3074 0.0000
vt 0.4133 0.3202 0.0000
vt 0.7080 0.2718 0.0000
vt 0.6993 0.3202 0.0000
vt 0.6056 0.7080 0.0000
vt 0.6540 0.6993 0.0000
vt 0.7314 0.8906 0.0000
vt 0.6955 0.8909 0.0000
vt 0.6699 0.8658 0.0000
vt 0.6696 0.8299 0.0000
vt 0.6947 0.8043 0.0000
vt 0.7306 0.8039 0.0000
vt 0.7562 0.8291 0.0000
vt 0.7566 0.8650 0.0000
vt 0.3179 0.5421 0.0000
vt 0.3193 0.6850 0.0000
vt 0.2750 0.6696 0.0000
vt 0.2732 0.5578 0.0000
vt 0.2314 0.7977 0.0000
vt 0.2067 0.7583 0.0000
vt 0.0941 0.8266 0.0000
vt 0.1008 0.7807 0.0000
vt 0.6981 0.2424 0.0000
vt 0.5537 0.2427 0.0000
vt 0.5690 0.1973 0.0000
vt 0.6816 0.1976 0.0000
vt 0.4379 0.1574 0.0000
vt 0.4768 0.1314 0.0000
vt 0.4046 0.0200 0.0000
vt 0.4511 0.0253 0.0000
vt 0.0873 0.4046 0.0000
vt 0.2279 0.4313 0.0000
vt 0.2036 0.4719 0.0000
vt 0.0950 0.4513 0.0000
vt 0.2340 0.6563 0.0000
vt 0.2339 0.5726 0.0000
vt 0.1801 0.7236 0.0000
vt 0.7762 0.1446 0.0000
vt 0.6712 0.1571 0.0000
vt 0.7471 0.1146 0.0000
vt 0.5826 0.1555 0.0000
vt 0.5097 0.1039 0.0000
vt 0.8767 0.5675 0.0000
vt 0.7658 0.5675 0.0000
vt 0.7768 0.5262 0.0000
vt 0.8657 0.5262 0.0000
vt 0.6696 0.5125 0.0000
vt 0.6996 0.4821 0.0000
vt 0.1791 0.5053 0.0000
vt 0.2128 0.6487 0.0000
vt 0.2124 0.5802 0.0000
vt 0.1694 0.7023 0.0000
vt 0.0891 0.7283 0.0000
vt 0.0978 0.7052 0.0000
vt 0.0211 0.6635 0.0000
vt 0.0443 0.6535 0.0000
vt 0.0200 0.5683 0.0000
vt 0.0434 0.5779 0.0000
vt 0.0868 0.5018 0.0000
vt 0.0959 0.5249 0.0000
vt 0.1682 0.5271 0.0000
vt 0.1902 0.8951 0.0000
vt 0.1190 0.8951 0.0000
vt 0.1061 0.8422 0.0000
vt 0.2031 0.8422 0.0000
vt 0.0557 0.9278 0.0000
vt 0.0200 0.8867 0.0000
vt 0.9531 0.0939 0.0000
vt 0.8846 0.0744 0.0000
vt 0.8868 0.0200 0.0000
vt 0.9800 0.0466 0.0000
vt 0.8148 0.0884 0.0000
vt 0.7917 0.0391 0.0000
vt 0.8339 0.6530 0.0000
vt 0.7643 0.6374 0.0000
vt 0.7633 0.5830 0.0000
vt 0.8580 0.6042 0.0000
vt 0.6954 0.6555 0.0000
vt 0.6696 0.6076 0.0000
vt 0.6450 0.7364 0.0000
vt 0.6450 0.8077 0.0000
vt 0.5921 0.8205 0.0000
vt 0.5921 0.7236 0.0000
vt 0.2536 0.9278 0.0000
vt 0.2892 0.8867 0.0000
vt 0.5765 0.5737 0.0000
vt 0.5065 0.6444 0.0000
vt 0.4980 0.6247 0.0000
vt 0.5564 0.5657 0.0000
vt 0.4071 0.6451 0.0000
vt 0.4150 0.6251 0.0000
vt 0.3361 0.5755 0.0000
vt 0.3558 0.5669 0.0000
vt 0.3349 0.4760 0.0000
vt 0.3549 0.4839 0.0000
vt 0.4048 0.4053 0.0000
vt 0.4134 0.4250 0.0000
vt 0.5043 0.4046 0.0000
vt 0.4964 0.4246 0.0000
vt 0.5753 0.4742 0.0000
vt 0.5556 0.4828 0.0000
vt 0.4859 0.5949 0.0000
vt 0.5268 0.5534 0.0000
vt 0.4274 0.5954 0.0000
vt 0.3854 0.5546 0.0000
vt 0.3846 0.4963 0.0000
vt 0.4255 0.4548 0.0000
vt 0.4840 0.4543 0.0000
vt 0.5259 0.4951 0.0000
vt 0.7667 0.7297 0.0000
vt 0.7593 0.7884 0.0000
vt 0.6696 0.7653 0.0000
vt 0.6741 0.7297 0.0000
vt 0.7991 0.2268 0.0000
vt 0.7917 0.1681 0.0000
vt 0.8844 0.1681 0.0000
vt 0.8889 0.2038 0.0000
vt 0.7991 0.1095 0.0000
vt 0.8889 0.1325 0.0000
vt 0.5021 0.6607 0.0000
vt 0.5095 0.7193 0.0000
vt 0.4168 0.7193 0.0000
vt 0.4123 0.6837 0.0000
vt 0.5021 0.7780 0.0000
vt 0.4123 0.7549 0.0000
vt 0.5297 0.8833 0.0000
vt 0.4710 0.8907 0.0000
vt 0.4710 0.7980 0.0000
vt 0.5066 0.7935 0.0000
vt 0.4123 0.8833 0.0000
vt 0.4354 0.7935 0.0000
vt 0.7593 0.6711 0.0000
vt 0.6696 0.6941 0.0000
# 159 texture coords

o Cylinder001
g Cylinder001
usemtl wire_028028177
s 1
f 1/1/1 2/2/2 3/3/3 4/4/4 5/5/5 6/6/6 7/7/7 8/8/8 
s 8
f 8/9/8 7/10/7 9/11/9 10/12/10 
f 7/13/7 6/14/6 11/15/11 9/16/9 
f 6/14/6 5/17/5 12/18/12 11/15/11 
f 5/19/5 4/20/4 13/21/13 12/22/12 
f 4/20/4 3/23/3 14/24/14 13/21/13 
f 3/25/3 2/26/2 15/27/15 14/28/14 
f 2/26/2 1/29/1 16/30/16 15/27/15 
f 1/31/1 8/9/8 10/12/10 16/32/16 
s 1
f 17/33/17 18/34/18 19/35/19 20/36/20 21/37/21 22/38/22 23/39/23 24/40/24 
s off
f 10/41/10 9/42/9 25/43/25 26/44/26 
f 9/42/9 11/45/11 27/46/27 25/43/25 
f 11/45/11 12/47/12 28/48/28 27/46/27 
f 12/49/12 13/50/13 29/51/29 28/52/28 
f 13/50/13 14/53/14 30/54/30 29/51/29 
f 14/53/14 15/55/15 31/56/31 30/54/30 
f 15/57/15 16/58/16 32/59/32 31/60/31 
f 16/58/16 10/41/10 26/44/26 32/59/32 
f 26/44/26 25/43/25 33/61/33 34/62/34 
f 25/43/25 27/46/27 35/63/35 33/61/33 
f 27/64/27 28/52/28 36/65/36 35/66/35 
f 28/52/28 29/51/29 37/67/37 36/65/36 
f 29/51/29 30/54/30 38/68/38 37/67/37 
f 30/69/30 31/70/31 39/71/39 38/72/38 
f 31/70/31 32/73/32 40/74/40 39/71/39 
f 32/59/32 26/44/26 34/62/34 40/75/40 
f 34/62/34 33/61/33 41/76/41 42/77/42 
f 33/61/33 35/63/35 43/78/43 41/76/41 
f 35/63/35 36/79/36 44/80/44 43/78/43 
f 36/79/36 37/81/37 45/82/45 44/80/44 
f 37/81/37 38/83/38 46/84/46 45/82/45 
f 38/83/38 39/85/39 47/86/47 46/84/46 
f 39/85/39 40/75/40 48/87/48 47/86/47 
f 40/75/40 34/62/34 42/77/42 48/87/48 
f 42/88/42 41/89/41 49/90/49 50/91/50 
f 41/89/41 43/92/43 51/93/51 49/90/49 
f 43/94/43 44/95/44 52/96/52 51/97/51 
f 44/95/44 45/98/45 53/99/53 52/96/52 
f 45/100/45 46/101/46 54/102/54 53/103/53 
f 46/101/46 47/104/47 55/105/55 54/102/54 
f 47/106/47 48/107/48 56/108/56 55/109/55 
f 48/110/48 42/88/42 50/91/50 56/111/56 
f 50/112/50 49/113/49 57/114/57 58/115/58 
f 49/113/49 51/116/51 59/117/59 57/114/57 
f 51/116/51 52/118/52 60/119/60 59/117/59 
f 52/118/52 53/120/53 61/121/61 60/119/60 
f 53/120/53 54/122/54 62/123/62 61/121/61 
f 54/122/54 55/124/55 63/125/63 62/123/62 
f 55/124/55 56/126/56 64/127/64 63/125/63 
f 56/126/56 50/112/50 58/115/58 64/127/64 
f 58/115/58 57/114/57 65/128/65 66/129/66 
f 57/114/57 59/117/59 67/130/67 65/128/65 
f 59/117/59 60/119/60 68/131/68 67/130/67 
f 60/119/60 61/121/61 69/132/69 68/131/68 
f 61/121/61 62/123/62 70/133/70 69/132/69 
f 62/123/62 63/125/63 71/134/71 70/133/70 
f 63/125/63 64/127/64 72/135/72 71/134/71 
f 64/127/64 58/115/58 66/129/66 72/135/72 
f 66/136/66 65/137/65 19/138/19 18/139/18 
f 65/140/65 67/141/67 20/142/20 19/143/19 
f 67/141/67 68/144/68 21/145/21 20/142/20 
f 68/146/68 69/147/69 22/148/22 21/149/21 
f 69/147/69 70/150/70 23/151/23 22/148/22 
f 70/152/70 71/153/71 24/154/24 23/155/23 
f 71/153/71 72/156/72 17/157/17 24/154/24 
f 72/158/72 66/136/66 18/139/18 17/159/17 
# 66 polygons

