# 3ds Max Wavefront OBJ Exporter v0.97b - (c)2007 guruware
# File Created: 26.10.2017 10:28:14

mtllib Spikes A.mtl

#
# object Spikes001
#

v  -311.0179 117.3301 -492.9320
v  -285.6179 117.3301 -492.9320
v  -291.6635 119.3104 -498.9776
v  -304.9723 119.3104 -498.9776
v  -285.6179 117.3301 -518.3320
v  -291.6635 119.3104 -512.2864
v  -311.0179 117.3301 -518.3320
v  -304.9723 119.3104 -512.2864
v  -260.2179 117.3301 -492.9320
v  -234.8179 117.3301 -492.9320
v  -240.8634 119.3104 -498.9776
v  -254.1723 119.3104 -498.9776
v  -234.8179 117.3301 -518.3320
v  -240.8634 119.3104 -512.2864
v  -260.2179 117.3301 -518.3320
v  -254.1723 119.3104 -512.2864
v  -209.4178 117.3301 -492.9320
v  -184.0179 117.3301 -492.9320
v  -190.0634 119.3104 -498.9776
v  -203.3723 119.3104 -498.9776
v  -184.0179 117.3301 -518.3320
v  -190.0634 119.3104 -512.2864
v  -209.4178 117.3301 -518.3320
v  -203.3723 119.3104 -512.2864
v  -266.2635 119.3104 -524.3776
v  -279.5723 119.3104 -524.3776
v  -260.2179 117.3301 -543.7320
v  -266.2635 119.3104 -537.6864
v  -285.6179 117.3301 -543.7320
v  -279.5723 119.3104 -537.6864
v  -215.4635 119.3104 -524.3776
v  -228.7722 119.3104 -524.3776
v  -209.4178 117.3301 -543.7320
v  -215.4635 119.3104 -537.6864
v  -234.8179 117.3301 -543.7320
v  -228.7722 119.3104 -537.6864
v  -311.0179 117.3301 -543.7320
v  -291.6635 119.3104 -549.7776
v  -304.9723 119.3104 -549.7776
v  -285.6179 117.3301 -569.1320
v  -291.6635 119.3104 -563.0864
v  -311.0179 117.3301 -569.1320
v  -304.9723 119.3104 -563.0864
v  -240.8634 119.3104 -549.7776
v  -254.1723 119.3104 -549.7776
v  -234.8179 117.3301 -569.1320
v  -240.8634 119.3104 -563.0864
v  -260.2179 117.3301 -569.1320
v  -254.1723 119.3104 -563.0864
v  -184.0179 117.3301 -543.7320
v  -190.0635 119.3104 -549.7776
v  -203.3723 119.3104 -549.7776
v  -184.0179 117.3301 -569.1320
v  -190.0635 119.3104 -563.0864
v  -209.4178 117.3301 -569.1320
v  -203.3723 119.3104 -563.0864
v  -266.2635 119.3104 -575.1776
v  -279.5723 119.3104 -575.1776
v  -260.2179 117.3301 -594.5320
v  -266.2635 119.3104 -588.4864
v  -285.6179 117.3301 -594.5320
v  -279.5723 119.3104 -588.4864
v  -215.4635 119.3104 -575.1776
v  -228.7722 119.3104 -575.1776
v  -209.4178 117.3301 -594.5320
v  -215.4635 119.3104 -588.4864
v  -234.8179 117.3301 -594.5320
v  -228.7722 119.3104 -588.4864
v  -311.0179 117.3301 -594.5320
v  -291.6635 119.3104 -600.5776
v  -304.9723 119.3104 -600.5776
v  -285.6179 117.3301 -619.9320
v  -291.6635 119.3104 -613.8864
v  -311.0179 117.3301 -619.9320
v  -304.9723 119.3104 -613.8864
v  -240.8634 119.3104 -600.5776
v  -254.1723 119.3104 -600.5776
v  -234.8179 117.3301 -619.9320
v  -240.8634 119.3104 -613.8864
v  -260.2179 117.3301 -619.9320
v  -254.1723 119.3104 -613.8864
v  -184.0179 117.3301 -594.5320
v  -190.0635 119.3104 -600.5776
v  -203.3723 119.3104 -600.5776
v  -184.0179 117.3301 -619.9320
v  -190.0635 119.3104 -613.8864
v  -209.4178 117.3301 -619.9320
v  -203.3723 119.3104 -613.8864
v  -298.0449 177.9864 -505.9049
v  -298.5908 177.9864 -505.9049
v  -298.5908 177.9864 -505.3591
v  -298.0449 177.9864 -505.3591
v  -247.2449 177.9864 -505.9054
v  -247.7908 177.9864 -505.9054
v  -247.7908 177.9864 -505.3595
v  -247.2449 177.9864 -505.3595
v  -196.4449 177.9864 -505.9049
v  -196.9908 177.9864 -505.9049
v  -196.9908 177.9864 -505.3591
v  -196.4449 177.9864 -505.3591
v  -272.6449 177.9864 -531.3049
v  -273.1908 177.9864 -531.3049
v  -273.1908 177.9864 -530.7591
v  -272.6449 177.9864 -530.7591
v  -221.8449 177.9864 -531.3049
v  -222.3908 177.9864 -531.3049
v  -222.3908 177.9864 -530.7591
v  -221.8449 177.9864 -530.7591
v  -247.2449 177.9864 -556.7050
v  -247.7908 177.9864 -556.7050
v  -247.7908 177.9864 -556.1591
v  -247.2449 177.9864 -556.1591
v  -196.4453 177.9864 -556.7050
v  -196.9912 177.9864 -556.7050
v  -196.9912 177.9864 -556.1591
v  -196.4453 177.9864 -556.1591
v  -221.8449 177.9864 -582.1049
v  -222.3908 177.9864 -582.1049
v  -222.3908 177.9864 -581.5591
v  -221.8449 177.9864 -581.5591
v  -298.0445 177.9864 -556.7050
v  -298.5904 177.9864 -556.7050
v  -298.5904 177.9864 -556.1591
v  -298.0445 177.9864 -556.1591
v  -272.6449 177.9864 -582.1049
v  -273.1908 177.9864 -582.1049
v  -273.1908 177.9864 -581.5591
v  -272.6449 177.9864 -581.5591
v  -298.0447 177.9865 -607.5047
v  -298.5906 177.9865 -607.5047
v  -298.5906 177.9865 -606.9589
v  -298.0447 177.9865 -606.9589
v  -247.2449 177.9864 -607.5045
v  -247.7908 177.9864 -607.5045
v  -247.7908 177.9864 -606.9587
v  -247.2449 177.9864 -606.9587
v  -196.4451 177.9865 -607.5047
v  -196.9910 177.9865 -607.5047
v  -196.9910 177.9865 -606.9589
v  -196.4451 177.9865 -606.9589
# 140 vertices

vn 0.0000 0.5408 0.8412
vn 0.8412 0.5408 -0.0000
vn 0.0000 0.5408 -0.8412
vn -0.8412 0.5408 -0.0000
vn -0.0000 0.5408 0.8412
vn -0.0000 0.5408 -0.8412
vn 0.8412 0.5408 0.0000
vn -0.8412 0.5408 0.0000
vn 0.0000 1.0000 -0.0000
vn 0.0000 0.0229 0.9997
vn 0.9997 0.0229 -0.0000
vn 0.0000 0.0229 -0.9997
vn -0.9997 0.0229 -0.0000
vn -0.0000 0.0229 0.9997
vn -0.0000 0.0229 -0.9997
vn 0.9997 0.0229 0.0000
vn -0.9997 0.0229 0.0000
# 17 vertex normals

vt 0.0132 0.3035 -56.7037
vt 0.0566 0.2809 -31.9737
vt 0.0513 0.3014 -31.9737
vt 0.0293 0.3085 -31.9737
vt 0.0899 0.3137 -31.9737
vt 0.0744 0.3105 -31.9737
vt 0.0484 0.3392 -31.9737
vt 0.0511 0.3177 -31.9737
vt 0.0451 0.1024 0.0000
vt 0.1009 0.1024 0.0000
vt 0.0876 0.1270 0.0000
vt 0.0584 0.1270 0.0000
vt 0.9995 0.1917 0.0000
vt 0.9995 0.2474 0.0000
vt 0.9750 0.2341 0.0000
vt 0.9750 0.2049 0.0000
vt 0.9228 0.9804 0.0000
vt 0.8670 0.9804 0.0000
vt 0.8803 0.9558 0.0000
vt 0.9095 0.9558 0.0000
vt 0.1343 0.1917 0.0000
vt 0.1901 0.1917 0.0000
vt 0.1768 0.2162 0.0000
vt 0.1476 0.2162 0.0000
vt 0.9676 0.2363 0.0000
vt 0.9676 0.2920 0.0000
vt 0.9431 0.2787 0.0000
vt 0.9431 0.2495 0.0000
vt 0.2235 0.2809 0.0000
vt 0.2793 0.2809 0.0000
vt 0.2660 0.3054 0.0000
vt 0.2368 0.3054 0.0000
vt 0.2681 0.3063 0.0000
vt 0.3239 0.3063 0.0000
vt 0.3106 0.3309 0.0000
vt 0.2814 0.3309 0.0000
vt 0.3876 0.9804 0.0000
vt 0.3318 0.9804 0.0000
vt 0.3451 0.9558 0.0000
vt 0.3743 0.9558 0.0000
vt 0.4465 0.3063 0.0000
vt 0.5023 0.3063 0.0000
vt 0.4890 0.3309 0.0000
vt 0.4598 0.3309 0.0000
vt 0.5214 0.9485 0.0000
vt 0.4656 0.9485 0.0000
vt 0.4789 0.9240 0.0000
vt 0.5081 0.9240 0.0000
vt 0.4911 0.2809 0.0000
vt 0.5469 0.2809 0.0000
vt 0.5336 0.3054 0.0000
vt 0.5044 0.3054 0.0000
vt 0.5660 0.9804 0.0000
vt 0.5102 0.9804 0.0000
vt 0.5235 0.9558 0.0000
vt 0.5527 0.9558 0.0000
vt 0.8336 0.9804 0.0000
vt 0.7778 0.9804 0.0000
vt 0.7911 0.9558 0.0000
vt 0.8203 0.9558 0.0000
vt 0.7587 0.2809 0.0000
vt 0.8145 0.2809 0.0000
vt 0.8012 0.3054 0.0000
vt 0.7720 0.3054 0.0000
vt 0.7890 0.9485 0.0000
vt 0.7332 0.9485 0.0000
vt 0.7465 0.9240 0.0000
vt 0.7757 0.9240 0.0000
vt 0.7141 0.3063 0.0000
vt 0.7699 0.3063 0.0000
vt 0.7566 0.3309 0.0000
vt 0.7274 0.3309 0.0000
vt 0.2474 0.9995 0.0000
vt 0.1917 0.9995 0.0000
vt 0.2049 0.9750 0.0000
vt 0.2341 0.9750 0.0000
vt 0.8479 0.2809 0.0000
vt 0.9037 0.2809 0.0000
vt 0.8904 0.3054 0.0000
vt 0.8612 0.3054 0.0000
vt 0.1789 0.2363 0.0000
vt 0.2347 0.2363 0.0000
vt 0.2214 0.2608 0.0000
vt 0.1922 0.2608 0.0000
vt 0.9676 0.0578 0.0000
vt 0.9676 0.1136 0.0000
vt 0.9431 0.1003 0.0000
vt 0.9431 0.0711 0.0000
vt 0.4768 0.9804 0.0000
vt 0.4210 0.9804 0.0000
vt 0.4343 0.9558 0.0000
vt 0.4635 0.9558 0.0000
vt 0.3573 0.3063 0.0000
vt 0.4131 0.3063 0.0000
vt 0.3998 0.3309 0.0000
vt 0.3706 0.3309 0.0000
vt 0.4322 0.9485 0.0000
vt 0.3764 0.9485 0.0000
vt 0.3897 0.9240 0.0000
vt 0.4189 0.9240 0.0000
vt 0.4019 0.2809 0.0000
vt 0.4577 0.2809 0.0000
vt 0.4444 0.3054 0.0000
vt 0.4152 0.3054 0.0000
vt 0.1917 0.2347 0.0000
vt 0.1917 0.1789 0.0000
vt 0.2162 0.1922 0.0000
vt 0.2162 0.2214 0.0000
vt 0.0578 0.1009 0.0000
vt 0.0578 0.0451 0.0000
vt 0.0824 0.0584 0.0000
vt 0.0824 0.0876 0.0000
vt 0.9676 0.1470 0.0000
vt 0.9676 0.2028 0.0000
vt 0.9431 0.1895 0.0000
vt 0.9431 0.1603 0.0000
vt 0.8782 0.9485 0.0000
vt 0.8224 0.9485 0.0000
vt 0.8357 0.9240 0.0000
vt 0.8649 0.9240 0.0000
vt 0.5357 0.3063 0.0000
vt 0.5915 0.3063 0.0000
vt 0.5782 0.3309 0.0000
vt 0.5490 0.3309 0.0000
vt 0.6106 0.9485 0.0000
vt 0.5548 0.9485 0.0000
vt 0.5681 0.9240 0.0000
vt 0.5973 0.9240 0.0000
vt 0.5803 0.2809 0.0000
vt 0.6361 0.2809 0.0000
vt 0.6228 0.3054 0.0000
vt 0.5936 0.3054 0.0000
vt 0.6552 0.9804 0.0000
vt 0.5994 0.9804 0.0000
vt 0.6127 0.9558 0.0000
vt 0.6419 0.9558 0.0000
vt 0.6249 0.3063 0.0000
vt 0.6807 0.3063 0.0000
vt 0.6674 0.3309 0.0000
vt 0.6382 0.3309 0.0000
vt 0.6998 0.9485 0.0000
vt 0.6440 0.9485 0.0000
vt 0.6573 0.9240 0.0000
vt 0.6865 0.9240 0.0000
vt 0.6695 0.2809 0.0000
vt 0.7253 0.2809 0.0000
vt 0.7120 0.3054 0.0000
vt 0.6828 0.3054 0.0000
vt 0.7444 0.9804 0.0000
vt 0.6886 0.9804 0.0000
vt 0.7019 0.9558 0.0000
vt 0.7311 0.9558 0.0000
vt 0.9960 0.0132 0.0000
vt 0.9960 0.0690 0.0000
vt 0.9753 0.0557 0.0000
vt 0.9753 0.0265 0.0000
vt 0.0005 0.0578 0.0000
vt 0.0563 0.0578 0.0000
vt 0.0430 0.0785 0.0000
vt 0.0138 0.0785 0.0000
vt 0.1582 0.9995 0.0000
vt 0.1024 0.9995 0.0000
vt 0.1157 0.9750 0.0000
vt 0.1449 0.9750 0.0000
vt 0.0897 0.1470 0.0000
vt 0.1455 0.1470 0.0000
vt 0.1322 0.1716 0.0000
vt 0.1030 0.1716 0.0000
vt 0.8033 0.3063 0.0000
vt 0.8591 0.3063 0.0000
vt 0.8458 0.3309 0.0000
vt 0.8166 0.3309 0.0000
vt 0.2028 0.9676 0.0000
vt 0.1470 0.9676 0.0000
vt 0.1603 0.9431 0.0000
vt 0.1895 0.9431 0.0000
vt 0.1136 0.9676 0.0000
vt 0.0578 0.9676 0.0000
vt 0.0711 0.9431 0.0000
vt 0.1003 0.9431 0.0000
vt 0.1470 0.1901 0.0000
vt 0.1470 0.1343 0.0000
vt 0.1716 0.1476 0.0000
vt 0.1716 0.1768 0.0000
vt 0.2363 0.2793 0.0000
vt 0.2363 0.2235 0.0000
vt 0.2608 0.2368 0.0000
vt 0.2608 0.2660 0.0000
vt 0.1024 0.1455 0.0000
vt 0.1024 0.0897 0.0000
vt 0.1270 0.1030 0.0000
vt 0.1270 0.1322 0.0000
vt 0.9995 0.1024 0.0000
vt 0.9995 0.1582 0.0000
vt 0.9750 0.1449 0.0000
vt 0.9750 0.1157 0.0000
vt 0.0069 0.0563 0.0000
vt 0.0069 0.0005 0.0000
vt 0.0275 0.0138 0.0000
vt 0.0275 0.0430 0.0000
vt 0.0463 0.0081 0.0000
vt 0.0451 0.0081 0.0000
vt 0.0451 0.0069 0.0000
vt 0.0463 0.0069 0.0000
vt 0.0654 0.0081 0.0000
vt 0.0642 0.0081 0.0000
vt 0.0642 0.0069 0.0000
vt 0.0654 0.0069 0.0000
vt 0.0272 0.0081 0.0000
vt 0.0260 0.0081 0.0000
vt 0.0260 0.0069 0.0000
vt 0.0272 0.0069 0.0000
vt 0.0845 0.0081 0.0000
vt 0.0833 0.0081 0.0000
vt 0.0833 0.0069 0.0000
vt 0.0845 0.0069 0.0000
vt 0.1036 0.0081 0.0000
vt 0.1024 0.0081 0.0000
vt 0.1024 0.0069 0.0000
vt 0.1036 0.0069 0.0000
vt 0.1164 0.0144 0.0000
vt 0.1152 0.0144 0.0000
vt 0.1152 0.0132 0.0000
vt 0.1164 0.0132 0.0000
vt 0.1355 0.0081 0.0000
vt 0.1343 0.0081 0.0000
vt 0.1343 0.0069 0.0000
vt 0.1355 0.0069 0.0000
vt 0.1355 0.0144 0.0000
vt 0.1343 0.0144 0.0000
vt 0.1343 0.0132 0.0000
vt 0.1355 0.0132 0.0000
vt 0.1546 0.0081 0.0000
vt 0.1534 0.0081 0.0000
vt 0.1534 0.0069 0.0000
vt 0.1546 0.0069 0.0000
vt 0.1546 0.0144 0.0000
vt 0.1534 0.0144 0.0000
vt 0.1534 0.0132 0.0000
vt 0.1546 0.0132 0.0000
vt 0.1737 0.0081 0.0000
vt 0.1725 0.0081 0.0000
vt 0.1725 0.0069 0.0000
vt 0.1737 0.0069 0.0000
vt 0.1737 0.0144 0.0000
vt 0.1725 0.0144 0.0000
vt 0.1725 0.0132 0.0000
vt 0.1737 0.0132 0.0000
vt 0.1928 0.0081 0.0000
vt 0.1917 0.0081 0.0000
vt 0.1917 0.0069 0.0000
vt 0.1928 0.0069 0.0000
vt 0.0535 0.9953 -31.9737
vt 0.0431 0.9960 56.7037
vt 0.0655 0.9952 -31.9737
vt 0.0557 0.9753 0.0000
vt 0.0265 0.9753 0.0000
vt 0.0405 0.3637 0.0000
vt 0.0417 0.3637 0.0000
vt 0.3260 0.3054 0.0000
vt 0.3552 0.3054 0.0000
vt 0.3412 0.8275 0.0000
vt 0.3400 0.8275 0.0000
vt 0.0736 0.6491 0.0000
vt 0.0724 0.6491 0.0000
vt 0.4529 0.2201 0.0000
vt 0.4529 0.2189 0.0000
vt 0.8943 0.4338 0.0000
vt 0.8955 0.4338 0.0000
vt 0.1628 0.7383 0.0000
vt 0.1616 0.7383 0.0000
vt 0.4210 0.2647 0.0000
vt 0.4210 0.2635 0.0000
vt 0.2520 0.8275 0.0000
vt 0.2508 0.8275 0.0000
vt 0.2966 0.8530 0.0000
vt 0.2954 0.8530 0.0000
vt 0.3591 0.4338 0.0000
vt 0.3603 0.4338 0.0000
vt 0.4750 0.8530 0.0000
vt 0.4738 0.8530 0.0000
vt 0.4929 0.4019 0.0000
vt 0.4941 0.4019 0.0000
vt 0.5196 0.8275 0.0000
vt 0.5184 0.8275 0.0000
vt 0.5375 0.4338 0.0000
vt 0.5387 0.4338 0.0000
vt 0.8051 0.4338 0.0000
vt 0.8063 0.4338 0.0000
vt 0.7872 0.8275 0.0000
vt 0.7860 0.8275 0.0000
vt 0.7605 0.4019 0.0000
vt 0.7617 0.4019 0.0000
vt 0.7426 0.8530 0.0000
vt 0.7414 0.8530 0.0000
vt 0.4483 0.4338 0.0000
vt 0.4495 0.4338 0.0000
vt 0.3858 0.8530 0.0000
vt 0.3846 0.8530 0.0000
vt 0.4037 0.4019 0.0000
vt 0.4049 0.4019 0.0000
vt 0.4304 0.8275 0.0000
vt 0.4292 0.8275 0.0000
vt 0.7383 0.2062 0.0000
vt 0.7383 0.2074 0.0000
vt 0.6045 0.0724 0.0000
vt 0.6045 0.0736 0.0000
vt 0.4210 0.1755 0.0000
vt 0.4210 0.1743 0.0000
vt 0.8497 0.4019 0.0000
vt 0.8509 0.4019 0.0000
vt 0.6534 0.8530 0.0000
vt 0.6522 0.8530 0.0000
vt 0.6713 0.4019 0.0000
vt 0.6725 0.4019 0.0000
vt 0.6980 0.8275 0.0000
vt 0.6968 0.8275 0.0000
vt 0.7159 0.4338 0.0000
vt 0.7171 0.4338 0.0000
vt 0.2189 0.4529 0.0000
vt 0.2201 0.4529 0.0000
vt 0.8764 0.8275 0.0000
vt 0.8752 0.8275 0.0000
vt 0.2074 0.7829 0.0000
vt 0.2062 0.7829 0.0000
vt 0.4210 0.0863 0.0000
vt 0.4210 0.0851 0.0000
vt 0.5642 0.8530 0.0000
vt 0.5630 0.8530 0.0000
vt 0.5821 0.4019 0.0000
vt 0.5833 0.4019 0.0000
vt 0.6088 0.8275 0.0000
vt 0.6076 0.8275 0.0000
vt 0.6267 0.4338 0.0000
vt 0.6279 0.4338 0.0000
vt 0.3637 0.0417 0.0000
vt 0.3637 0.0405 0.0000
vt 0.0290 0.6901 0.0000
vt 0.0278 0.6901 0.0000
vt 0.1297 0.4529 0.0000
vt 0.1309 0.4529 0.0000
vt 0.1182 0.6937 0.0000
vt 0.1170 0.6937 0.0000
vt 0.8318 0.8529 0.0000
vt 0.8306 0.8529 0.0000
vt 0.1743 0.4210 0.0000
vt 0.1755 0.4210 0.0000
vt 0.0851 0.4210 0.0000
vt 0.0863 0.4210 0.0000
vt 0.6937 0.1616 0.0000
vt 0.6937 0.1628 0.0000
vt 0.7829 0.2508 0.0000
vt 0.7829 0.2520 0.0000
vt 0.6491 0.1170 0.0000
vt 0.6491 0.1182 0.0000
vt 0.4529 0.1309 0.0000
vt 0.4529 0.1297 0.0000
vt 0.6392 0.0278 0.0000
vt 0.6392 0.0290 0.0000
# 359 texture coords

o Spikes001
g Spikes001
usemtl wire_086086086
s off
f 1/1/1 2/2/1 3/3/1 4/4/1 
f 2/2/2 5/5/2 6/6/2 3/3/2 
f 5/5/3 7/7/3 8/8/3 6/6/3 
f 7/7/4 1/1/4 4/4/4 8/8/4 
f 9/9/1 10/10/1 11/11/1 12/12/1 
f 10/13/2 13/14/2 14/15/2 11/16/2 
f 13/17/3 15/18/3 16/19/3 14/20/3 
f 15/21/4 9/22/4 12/23/4 16/24/4 
f 17/25/1 18/26/1 19/27/1 20/28/1 
f 18/29/2 21/30/2 22/31/2 19/32/2 
f 21/33/3 23/34/3 24/35/3 22/36/3 
f 23/37/4 17/38/4 20/39/4 24/40/4 
f 5/41/1 15/42/1 25/43/1 26/44/1 
f 15/45/2 27/46/2 28/47/2 25/48/2 
f 27/49/3 29/50/3 30/51/3 28/52/3 
f 29/53/4 5/54/4 26/55/4 30/56/4 
f 13/57/1 23/58/1 31/59/1 32/60/1 
f 23/61/2 33/62/2 34/63/2 31/64/2 
f 33/65/3 35/66/3 36/67/3 34/68/3 
f 35/69/4 13/70/4 32/71/4 36/72/4 
f 37/73/1 29/74/1 38/75/1 39/76/1 
f 29/77/2 40/78/2 41/79/2 38/80/2 
f 40/81/3 42/82/3 43/83/3 41/84/3 
f 42/85/4 37/86/4 39/87/4 43/88/4 
f 27/89/1 35/90/1 44/91/1 45/92/1 
f 35/93/2 46/94/2 47/95/2 44/96/2 
f 46/97/3 48/98/3 49/99/3 47/100/3 
f 48/101/4 27/102/4 45/103/4 49/104/4 
f 33/105/5 50/106/5 51/107/5 52/108/5 
f 50/109/2 53/110/2 54/111/2 51/112/2 
f 53/113/6 55/114/6 56/115/6 54/116/6 
f 55/117/4 33/118/4 52/119/4 56/120/4 
f 40/121/1 48/122/1 57/123/1 58/124/1 
f 48/125/2 59/126/2 60/127/2 57/128/2 
f 59/129/3 61/130/3 62/131/3 60/132/3 
f 61/133/4 40/134/4 58/135/4 62/136/4 
f 46/137/1 55/138/1 63/139/1 64/140/1 
f 55/141/2 65/142/2 66/143/2 63/144/2 
f 65/145/3 67/146/3 68/147/3 66/148/3 
f 67/149/4 46/150/4 64/151/4 68/152/4 
f 69/153/1 61/154/1 70/155/1 71/156/1 
f 61/157/7 72/158/7 73/159/7 70/160/7 
f 72/161/3 74/162/3 75/163/3 73/164/3 
f 74/165/4 69/166/4 71/167/4 75/168/4 
f 59/169/1 67/170/1 76/171/1 77/172/1 
f 67/173/7 78/174/7 79/175/7 76/176/7 
f 78/177/3 80/178/3 81/179/3 79/180/3 
f 80/181/8 59/182/8 77/183/8 81/184/8 
f 65/185/5 82/186/5 83/187/5 84/188/5 
f 82/189/2 85/190/2 86/191/2 83/192/2 
f 85/193/3 87/194/3 88/195/3 86/196/3 
f 87/197/8 65/198/8 84/199/8 88/200/8 
f 89/201/9 90/202/9 91/203/9 92/204/9 
f 93/205/9 94/206/9 95/207/9 96/208/9 
f 97/209/9 98/210/9 99/211/9 100/212/9 
f 101/213/9 102/214/9 103/215/9 104/216/9 
f 105/217/9 106/218/9 107/219/9 108/220/9 
f 109/221/9 110/222/9 111/223/9 112/224/9 
f 113/225/9 114/226/9 115/227/9 116/228/9 
f 117/229/9 118/230/9 119/231/9 120/232/9 
f 121/233/9 122/234/9 123/235/9 124/236/9 
f 125/237/9 126/238/9 127/239/9 128/240/9 
f 129/241/9 130/242/9 131/243/9 132/244/9 
f 133/245/9 134/246/9 135/247/9 136/248/9 
f 137/249/9 138/250/9 139/251/9 140/252/9 
f 4/4/10 3/3/10 92/253/10 91/254/10 
f 3/3/11 6/6/11 89/255/11 92/253/11 
f 6/256/12 8/257/12 90/258/12 89/259/12 
f 8/260/13 4/261/13 91/262/13 90/263/13 
f 12/12/10 11/11/10 96/264/10 95/265/10 
f 11/16/11 14/15/11 93/266/11 96/267/11 
f 14/20/12 16/19/12 94/268/12 93/269/12 
f 16/24/13 12/23/13 95/270/13 94/271/13 
f 20/28/10 19/27/10 100/272/10 99/273/10 
f 19/32/11 22/31/11 97/274/11 100/275/11 
f 22/36/12 24/35/12 98/276/12 97/277/12 
f 24/40/13 20/39/13 99/278/13 98/279/13 
f 26/44/10 25/43/10 104/280/10 103/281/10 
f 25/48/11 28/47/11 101/282/11 104/283/11 
f 28/52/12 30/51/12 102/284/12 101/285/12 
f 30/56/13 26/55/13 103/286/13 102/287/13 
f 32/60/10 31/59/10 108/288/10 107/289/10 
f 31/64/11 34/63/11 105/290/11 108/291/11 
f 34/68/12 36/67/12 106/292/12 105/293/12 
f 36/72/13 32/71/13 107/294/13 106/295/13 
f 45/92/10 44/91/10 112/296/10 111/297/10 
f 44/96/11 47/95/11 109/298/11 112/299/11 
f 47/100/12 49/99/12 110/300/12 109/301/12 
f 49/104/13 45/103/13 111/302/13 110/303/13 
f 52/108/14 51/107/14 116/304/14 115/305/14 
f 51/112/11 54/111/11 113/306/11 116/307/11 
f 54/116/15 56/115/15 114/308/15 113/309/15 
f 56/120/13 52/119/13 115/310/13 114/311/13 
f 64/140/10 63/139/10 120/312/10 119/313/10 
f 63/144/11 66/143/11 117/314/11 120/315/11 
f 66/148/12 68/147/12 118/316/12 117/317/12 
f 68/152/13 64/151/13 119/318/13 118/319/13 
f 39/76/10 38/75/10 124/320/10 123/321/10 
f 38/80/11 41/79/11 121/322/11 124/323/11 
f 41/84/12 43/83/12 122/324/12 121/325/12 
f 43/88/13 39/87/13 123/326/13 122/327/13 
f 58/124/10 57/123/10 128/328/10 127/329/10 
f 57/128/11 60/127/11 125/330/11 128/331/11 
f 60/132/12 62/131/12 126/332/12 125/333/12 
f 62/136/13 58/135/13 127/334/13 126/335/13 
f 71/156/10 70/155/10 132/336/10 131/337/10 
f 70/160/16 73/159/16 129/338/16 132/339/16 
f 73/164/15 75/163/15 130/340/15 129/341/15 
f 75/168/13 71/167/13 131/342/13 130/343/13 
f 77/172/10 76/171/10 136/344/10 135/345/10 
f 76/176/16 79/175/16 133/346/16 136/347/16 
f 79/180/12 81/179/12 134/348/12 133/349/12 
f 81/184/17 77/183/17 135/350/17 134/351/17 
f 84/188/14 83/187/14 140/352/14 139/353/14 
f 83/192/11 86/191/11 137/354/11 140/355/11 
f 86/196/12 88/195/12 138/356/12 137/357/12 
f 88/200/17 84/199/17 139/358/17 138/359/17 
# 117 polygons

