# 3ds Max Wavefront OBJ Exporter v0.97b - (c)2007 guruware
# File Created: 07.11.2017 16:57:04

mtllib Throne.mtl

#
# object Box023
#

v  33.1296 0.0000 -23.8866
v  33.1296 0.0000 30.4556
v  -22.7434 -0.2167 34.0221
v  -19.1994 0.0000 -23.8866
v  33.1296 12.1149 -23.8866
v  -19.1994 12.1149 -23.8866
v  -19.1994 12.1149 30.4556
v  33.1296 12.1149 30.4556
v  35.5299 9.7146 29.7173
v  -21.5997 9.7146 29.7173
v  -19.1994 2.4003 29.7173
v  33.1296 2.4003 29.7173
v  45.0963 12.1149 -23.8866
v  45.0963 12.1149 28.7784
v  50.2612 2.5087 32.1177
v  45.0963 2.4003 -23.8866
v  -31.1662 12.1149 28.7784
v  -31.1662 12.1149 -23.8866
v  -31.1662 2.4003 -23.8866
v  -36.3311 2.5087 32.1177
v  -19.1994 0.0000 -37.1467
v  33.1296 0.0000 -37.1467
v  -31.1662 12.1149 -35.4695
v  -36.3311 2.5087 -40.8326
v  50.2612 2.5087 -40.8326
v  45.0963 12.1149 -35.4695
v  46.1530 0.0000 -23.8866
v  51.4610 -0.2167 34.0221
v  51.4610 -0.2167 -42.7370
v  43.7527 47.8958 -23.8866
v  43.7527 47.8958 -35.4695
v  35.5299 47.8958 -35.4695
v  35.5299 47.8958 -23.8866
v  43.7527 47.8958 28.7784
v  35.5299 47.8958 28.7784
v  48.7356 2.5087 33.1838
v  43.7527 12.1149 29.7173
v  -37.5308 -0.2167 34.0221
v  -32.2228 0.0000 -23.8866
v  -29.8225 12.1149 29.7173
v  -34.8054 2.5087 33.1838
v  -29.8225 47.8958 -23.8866
v  -29.8225 47.8958 28.7784
v  -21.5997 47.8958 28.7784
v  -21.5997 47.8958 -23.8866
v  -29.8225 47.8958 -35.4695
v  -21.5997 47.8958 -35.4695
v  -37.5308 -0.2167 -42.7370
v  30.1266 28.4872 30.4556
v  33.1296 28.4872 -23.8866
v  38.0083 28.4872 29.7173
v  32.1932 28.4872 29.7173
v  39.1652 28.4872 -23.8866
v  39.1652 28.4872 28.7784
v  39.1652 28.4872 -35.4695
v  -27.0799 28.4872 -23.8866
v  -27.0799 28.4872 -35.4695
v  -27.0799 28.4872 28.7784
v  -21.5997 28.4872 29.7173
v  -25.9230 28.4872 29.7173
v  -19.1994 28.4872 -23.8866
v  -19.1994 28.4872 30.4556
v  33.1296 18.2866 19.5341
v  -19.1994 18.2866 19.5341
v  -19.1994 12.1149 19.5341
v  33.1296 12.1149 19.5341
v  30.5715 48.9525 30.4556
v  33.1296 48.9525 -23.8866
v  43.7527 46.5522 29.7173
v  35.5299 46.5522 29.7173
v  45.0963 46.5522 -23.8866
v  45.0963 46.5522 28.7784
v  45.0963 46.5522 -35.4695
v  -31.1662 46.5522 -23.8866
v  -31.1662 46.5522 -35.4695
v  -31.1662 46.5522 28.7784
v  -21.5997 46.5522 29.7173
v  -29.8225 46.5522 29.7173
v  -19.1994 48.9525 -23.8866
v  -16.6413 48.9525 30.4556
v  24.4429 48.9525 -26.2266
v  -10.5128 48.9525 -26.2266
v  -10.5128 37.1738 -26.2266
v  24.4429 37.1738 -26.2266
v  -29.6295 100.7641 -23.8866
v  -29.6295 100.7641 -37.1468
v  -19.1994 48.9525 -38.1889
v  31.4102 94.5777 -26.2266
v  -17.4800 94.5777 -26.2266
v  43.5597 100.7641 -37.1468
v  43.5597 100.7641 -23.8866
v  33.1296 48.9525 -38.1889
v  30.1266 28.4872 12.4064
v  33.1296 25.6534 17.1869
v  33.1296 25.1280 17.5539
v  -19.1994 28.4872 12.4064
v  -19.1994 25.1280 17.5539
v  -19.1994 25.6534 17.1869
v  6.9651 142.7982 -23.8866
v  6.9651 142.7982 -37.1467
v  6.9651 117.7125 -26.2266
v  24.4429 37.1738 -23.8866
v  -10.5128 37.1738 -23.8866
v  24.4429 48.9525 -23.8866
v  31.4102 94.5777 -23.8866
v  6.9651 117.7125 -23.8866
v  -17.4800 94.5777 -23.8866
v  -10.5128 48.9525 -23.8866
v  35.5299 48.9525 -23.8866
v  35.5299 48.9525 -35.4695
v  35.5299 48.9525 28.7784
v  43.7527 48.9525 28.7784
v  48.6235 48.9525 29.6840
v  43.7527 48.9525 -23.8866
v  48.6235 48.9525 -23.6266
v  43.7527 48.9525 -35.4695
v  48.6235 48.9525 -36.6351
v  -21.5997 48.9525 -35.4695
v  -21.5997 48.9525 -23.8866
v  -29.8225 48.9525 -35.4695
v  -34.6933 48.9525 -36.6351
v  -29.8225 48.9525 -23.8866
v  -34.6933 48.9525 -23.6266
v  -29.8225 48.9525 28.7784
v  -34.6933 48.9525 29.6840
v  -21.5997 48.9525 28.7784
v  46.1530 2.4003 -23.8866
v  51.4610 2.5087 32.1177
v  51.4610 2.5087 -40.8326
v  46.1530 12.1149 -35.4695
v  46.1530 12.1149 -37.1467
v  40.0749 28.4872 -35.4695
v  40.0749 28.4872 -37.1467
v  46.1530 46.5522 -35.4695
v  46.1530 46.5522 -23.8866
v  46.1530 46.5522 28.7784
v  40.0749 28.4872 28.7784
v  40.0749 28.4872 30.4556
v  46.1530 12.1149 28.7784
v  46.1530 12.1149 30.4556
v  -37.5308 2.5087 32.1177
v  -32.2228 2.4003 -23.8866
v  -32.2228 12.1149 28.7784
v  -32.2228 12.1149 30.4556
v  -27.9897 28.4872 28.7784
v  -27.9897 28.4872 30.4556
v  -32.2228 46.5522 28.7784
v  -32.2228 46.5522 -23.8866
v  -32.2228 46.5522 -35.4695
v  -27.9897 28.4872 -35.4695
v  -27.9897 28.4872 -37.1467
v  -32.2228 12.1149 -35.4695
v  -32.2228 12.1149 -37.1467
v  -37.5308 2.5087 -40.8326
v  33.1296 2.4003 30.4556
v  -19.1994 2.4003 30.4556
v  48.7356 2.5087 34.0221
v  43.7527 12.1149 30.4556
v  38.0083 28.4872 30.4556
v  43.7527 46.5522 30.4556
v  35.5299 46.5522 30.4556
v  32.1932 28.4872 30.4556
v  35.5299 9.7146 30.4556
v  -21.5997 9.7146 30.4556
v  -21.5997 28.4872 30.4556
v  -21.5997 46.5522 30.4556
v  -29.8225 46.5522 30.4556
v  -25.9230 28.4872 30.4556
v  -29.8225 12.1149 30.4556
v  -34.8054 2.5087 34.0221
# 170 vertices

vn 0.0000 -1.0000 -0.0000
vn 0.0000 1.0000 -0.0000
vn 0.0000 0.0000 1.0000
vn 1.0000 0.0000 -0.0000
vn -1.0000 0.0000 -0.0000
vn 0.0000 0.1951 0.9808
vn 0.0000 0.9808 0.1951
vn 0.0000 0.8315 0.5556
vn 0.0000 0.5556 0.8315
vn -0.8309 0.5564 -0.0000
vn 0.8309 0.5564 -0.0000
vn -0.8309 -0.5564 -0.0000
vn 0.8309 -0.5564 -0.0000
vn 0.0000 0.0000 -1.0000
vn -0.1491 0.1603 -0.9757
vn -0.3642 0.3915 -0.8451
vn -0.0916 0.0968 -0.9911
vn 0.0980 0.1054 -0.9896
vn 0.3642 0.3915 -0.8451
vn 0.1305 0.1423 -0.9812
vn -0.3435 0.0793 -0.9358
vn -0.1421 -0.0111 -0.9898
vn -0.0416 -0.0091 -0.9991
vn -0.0268 0.0234 -0.9994
vn 0.0000 0.0205 -0.9998
vn 0.0268 0.0234 -0.9994
vn 0.0385 -0.0278 -0.9989
vn 0.1420 -0.0239 -0.9896
vn 0.0365 -0.0239 -0.9990
# 29 vertex normals

vt 0.0859 0.3054 0.0000
vt 0.2759 0.3054 0.0000
vt 0.2884 0.4419 0.0000
vt 0.0859 0.4333 0.0000
vt 0.1478 0.9800 0.0000
vt 0.0200 0.9800 0.0000
vt 0.0200 0.7900 0.0000
vt 0.1478 0.7900 0.0000
vt 0.7535 0.3507 0.0000
vt 0.8930 0.3507 0.0000
vt 0.8872 0.3685 0.0000
vt 0.7593 0.3685 0.0000
vt 0.7450 0.1111 0.0000
vt 0.9291 0.1090 0.0000
vt 0.9415 0.1353 0.0000
vt 0.7453 0.1348 0.0000
vt 0.4592 0.3471 0.0000
vt 0.6434 0.3477 0.0000
vt 0.6433 0.3714 0.0000
vt 0.4471 0.3736 0.0000
vt 0.0395 0.4333 0.0000
vt 0.0395 0.3054 0.0000
vt 0.6839 0.3478 0.0000
vt 0.7038 0.3736 0.0000
vt 0.6848 0.1375 0.0000
vt 0.7045 0.1116 0.0000
vt 0.0859 0.2736 0.0000
vt 0.2884 0.2607 0.0000
vt 0.0200 0.2607 0.0000
vt 0.6549 0.5442 0.0000
vt 0.6144 0.5442 0.0000
vt 0.6144 0.5241 0.0000
vt 0.6549 0.5241 0.0000
vt 0.8391 0.5442 0.0000
vt 0.8391 0.5241 0.0000
vt 0.7194 0.3703 0.0000
vt 0.7334 0.3448 0.0000
vt 0.2884 0.4781 0.0000
vt 0.0859 0.4651 0.0000
vt 0.9131 0.3448 0.0000
vt 0.9271 0.3703 0.0000
vt 0.6999 0.4481 0.0000
vt 0.8840 0.4481 0.0000
vt 0.8840 0.4682 0.0000
vt 0.6999 0.4682 0.0000
vt 0.6594 0.4481 0.0000
vt 0.6594 0.4682 0.0000
vt 0.0200 0.4781 0.0000
vt 0.8750 0.1937 0.0000
vt 0.6849 0.1937 0.0000
vt 0.6848 0.1537 0.0000
vt 0.8747 0.1530 0.0000
vt 0.7474 0.3048 0.0000
vt 0.7616 0.3048 0.0000
vt 0.7445 0.0686 0.0000
vt 0.9286 0.0664 0.0000
vt 0.7040 0.0690 0.0000
vt 0.6435 0.3065 0.0000
vt 0.6840 0.3066 0.0000
vt 0.4594 0.3059 0.0000
vt 0.8930 0.3048 0.0000
vt 0.9036 0.3048 0.0000
vt 0.2065 0.4937 0.0000
vt 0.2061 0.6837 0.0000
vt 0.1661 0.6836 0.0000
vt 0.1665 0.4936 0.0000
vt 0.5748 0.8259 0.0000
vt 0.4471 0.8259 0.0000
vt 0.4471 0.8108 0.0000
vt 0.5748 0.8108 0.0000
vt 0.8750 0.2437 0.0000
vt 0.6849 0.2437 0.0000
vt 0.7334 0.2607 0.0000
vt 0.7535 0.2607 0.0000
vt 0.7440 0.0221 0.0000
vt 0.9281 0.0200 0.0000
vt 0.7035 0.0226 0.0000
vt 0.6436 0.2612 0.0000
vt 0.6841 0.2613 0.0000
vt 0.4595 0.2607 0.0000
vt 0.8931 0.2607 0.0000
vt 0.9131 0.2607 0.0000
vt 0.2565 0.4938 0.0000
vt 0.2565 0.6839 0.0000
vt 0.4759 0.4061 0.0000
vt 0.4759 0.4915 0.0000
vt 0.4471 0.4915 0.0000
vt 0.4471 0.4061 0.0000
vt 0.1661 0.8356 0.0000
vt 0.2125 0.8356 0.0000
vt 0.2162 0.9647 0.0000
vt 0.1662 0.9647 0.0000
vt 0.5873 0.3891 0.0000
vt 0.5873 0.5085 0.0000
vt 0.6115 0.8036 0.0000
vt 0.6579 0.8037 0.0000
vt 0.6576 0.9328 0.0000
vt 0.6076 0.9327 0.0000
vt 0.5989 0.5241 0.0000
vt 0.5989 0.6519 0.0000
vt 0.4471 0.6519 0.0000
vt 0.4471 0.5241 0.0000
vt 0.6594 0.4042 0.0000
vt 0.6594 0.3891 0.0000
vt 0.8112 0.3891 0.0000
vt 0.8112 0.4291 0.0000
vt 0.6841 0.4325 0.0000
vt 0.6676 0.4222 0.0000
vt 0.6663 0.4209 0.0000
vt 0.4652 0.7953 0.0000
vt 0.4652 0.6748 0.0000
vt 0.5921 0.6675 0.0000
vt 0.5921 0.7953 0.0000
vt 0.3268 0.3080 0.0000
vt 0.3668 0.3080 0.0000
vt 0.3668 0.4598 0.0000
vt 0.3517 0.4598 0.0000
vt 0.3350 0.4529 0.0000
vt 0.3337 0.4516 0.0000
vt 0.3268 0.4349 0.0000
vt 0.4471 0.8462 0.0000
vt 0.4471 0.8440 0.0000
vt 0.5748 0.8440 0.0000
vt 0.5748 0.8462 0.0000
vt 0.4471 0.7953 0.0000
vt 0.4471 0.6675 0.0000
vt 0.1662 0.6994 0.0000
vt 0.2125 0.6994 0.0000
vt 0.6438 0.4488 0.0000
vt 0.6118 0.6675 0.0000
vt 0.6582 0.6676 0.0000
vt 0.4112 0.0667 0.0000
vt 0.4112 0.1521 0.0000
vt 0.3900 0.1733 0.0000
vt 0.3900 0.0455 0.0000
vt 0.4400 0.0667 0.0000
vt 0.4400 0.0455 0.0000
vt 0.5514 0.0497 0.0000
vt 0.5665 0.0200 0.0000
vt 0.6079 0.1094 0.0000
vt 0.6692 0.1094 0.0000
vt 0.5514 0.1691 0.0000
vt 0.5665 0.1988 0.0000
vt 0.4400 0.1521 0.0000
vt 0.4400 0.1733 0.0000
vt 0.0768 0.5440 0.0000
vt 0.0768 0.6294 0.0000
vt 0.0686 0.6294 0.0000
vt 0.0686 0.5440 0.0000
vt 0.0530 0.6567 0.0000
vt 0.0530 0.6855 0.0000
vt 0.0448 0.6855 0.0000
vt 0.0448 0.6567 0.0000
vt 0.0530 0.5440 0.0000
vt 0.0448 0.5440 0.0000
vt 0.6967 0.5957 0.0000
vt 0.6144 0.5957 0.0000
vt 0.6144 0.5876 0.0000
vt 0.6967 0.5876 0.0000
vt 0.7789 0.5957 0.0000
vt 0.7789 0.5876 0.0000
vt 0.3824 0.4208 0.0000
vt 0.3824 0.3080 0.0000
vt 0.3905 0.3080 0.0000
vt 0.3905 0.4208 0.0000
vt 0.3824 0.4496 0.0000
vt 0.3905 0.4496 0.0000
vt 0.2637 0.7494 0.0000
vt 0.2637 0.7089 0.0000
vt 0.2695 0.6994 0.0000
vt 0.2695 0.7494 0.0000
vt 0.2637 0.9335 0.0000
vt 0.2758 0.9394 0.0000
vt 0.2436 0.9335 0.0000
vt 0.2317 0.9367 0.0000
vt 0.2436 0.7494 0.0000
vt 0.2317 0.7503 0.0000
vt 0.2436 0.7089 0.0000
vt 0.2317 0.7048 0.0000
vt 0.6858 0.6770 0.0000
vt 0.6858 0.7175 0.0000
vt 0.6800 0.7175 0.0000
vt 0.6800 0.6675 0.0000
vt 0.7059 0.6770 0.0000
vt 0.7178 0.6729 0.0000
vt 0.7059 0.7175 0.0000
vt 0.7178 0.7184 0.0000
vt 0.7059 0.9016 0.0000
vt 0.7178 0.9048 0.0000
vt 0.6858 0.9016 0.0000
vt 0.6737 0.9075 0.0000
vt 0.1441 0.7009 0.0000
vt 0.1439 0.5047 0.0000
vt 0.1506 0.4981 0.0000
vt 0.1500 0.7009 0.0000
vt 0.1438 0.7616 0.0000
vt 0.1506 0.7681 0.0000
vt 0.1137 0.7489 0.0000
vt 0.1149 0.7546 0.0000
vt 0.0719 0.7578 0.0000
vt 0.0731 0.7635 0.0000
vt 0.0264 0.7676 0.0000
vt 0.0200 0.7745 0.0000
vt 0.7694 0.7160 0.0000
vt 0.7694 0.6718 0.0000
vt 0.7786 0.6675 0.0000
vt 0.7780 0.7169 0.0000
vt 0.7703 0.8957 0.0000
vt 0.7786 0.8988 0.0000
vt 0.0735 0.5061 0.0000
vt 0.0275 0.4994 0.0000
vt 0.0206 0.4936 0.0000
vt 0.0744 0.5003 0.0000
vt 0.1157 0.5123 0.0000
vt 0.1166 0.5065 0.0000
vt 0.3106 0.2718 0.0000
vt 0.3104 0.4681 0.0000
vt 0.3045 0.4681 0.0000
vt 0.3039 0.2652 0.0000
vt 0.3388 0.2795 0.0000
vt 0.3380 0.2737 0.0000
vt 0.3797 0.2734 0.0000
vt 0.3788 0.2677 0.0000
vt 0.4245 0.2668 0.0000
vt 0.4310 0.2607 0.0000
vt 0.7972 0.5691 0.0000
vt 0.6175 0.5679 0.0000
vt 0.6144 0.5597 0.0000
vt 0.7963 0.5604 0.0000
vt 0.8414 0.5689 0.0000
vt 0.8457 0.5597 0.0000
vt 0.3813 0.5246 0.0000
vt 0.4256 0.5340 0.0000
vt 0.4316 0.5413 0.0000
vt 0.3800 0.5303 0.0000
vt 0.3408 0.5160 0.0000
vt 0.3396 0.5217 0.0000
vt 0.3107 0.5287 0.0000
vt 0.3039 0.5352 0.0000
vt 0.3103 0.6058 0.0000
vt 0.3172 0.7283 0.0000
vt 0.3045 0.7377 0.0000
vt 0.3046 0.6059 0.0000
vt 0.3105 0.5672 0.0000
vt 0.3039 0.5610 0.0000
vt 0.3377 0.5751 0.0000
vt 0.3370 0.5694 0.0000
vt 0.3781 0.5852 0.0000
vt 0.3778 0.5802 0.0000
vt 0.4217 0.5693 0.0000
vt 0.4271 0.5568 0.0000
vt 0.4235 0.5896 0.0000
vt 0.4303 0.6014 0.0000
vt 0.3795 0.6008 0.0000
vt 0.3797 0.6060 0.0000
vt 0.3321 0.5933 0.0000
vt 0.3382 0.5993 0.0000
vt 0.3312 0.7383 0.0000
vt 0.3374 0.7323 0.0000
vt 0.3785 0.7396 0.0000
vt 0.3788 0.7336 0.0000
vt 0.4232 0.7423 0.0000
vt 0.4300 0.7304 0.0000
vt 0.4216 0.7626 0.0000
vt 0.4271 0.7752 0.0000
vt 0.3775 0.7515 0.0000
vt 0.3772 0.7565 0.0000
vt 0.3374 0.7577 0.0000
vt 0.3368 0.7634 0.0000
vt 0.3104 0.7662 0.0000
vt 0.3039 0.7726 0.0000
vt 0.7941 0.8334 0.0000
vt 0.7941 0.7056 0.0000
vt 0.7967 0.7056 0.0000
vt 0.7967 0.8334 0.0000
vt 0.8062 0.8715 0.0000
vt 0.8092 0.8715 0.0000
vt 0.3962 0.6674 0.0000
vt 0.4084 0.6410 0.0000
vt 0.4113 0.6410 0.0000
vt 0.3988 0.6674 0.0000
vt 0.3962 0.7098 0.0000
vt 0.3988 0.7098 0.0000
vt 0.3576 0.6410 0.0000
vt 0.3576 0.6873 0.0000
vt 0.3550 0.6873 0.0000
vt 0.3550 0.6410 0.0000
vt 0.8045 0.3183 0.0000
vt 0.8045 0.2982 0.0000
vt 0.8071 0.2982 0.0000
vt 0.8071 0.3183 0.0000
vt 0.4061 0.3529 0.0000
vt 0.4061 0.3080 0.0000
vt 0.4087 0.3080 0.0000
vt 0.4087 0.3529 0.0000
vt 0.4061 0.3995 0.0000
vt 0.4087 0.3995 0.0000
vt 0.4256 0.4476 0.0000
vt 0.4256 0.3080 0.0000
vt 0.4282 0.3080 0.0000
vt 0.4282 0.4476 0.0000
vt 0.0226 0.5674 0.0000
vt 0.0226 0.6132 0.0000
vt 0.0200 0.6132 0.0000
vt 0.0200 0.5674 0.0000
vt 0.0226 0.5232 0.0000
vt 0.0200 0.5232 0.0000
vt 0.7981 0.2607 0.0000
vt 0.7981 0.2807 0.0000
vt 0.7956 0.2807 0.0000
vt 0.7956 0.2607 0.0000
vt 0.5158 0.8658 0.0000
vt 0.5607 0.8704 0.0000
vt 0.5605 0.8729 0.0000
vt 0.5155 0.8684 0.0000
vt 0.4749 0.8618 0.0000
vt 0.4746 0.8643 0.0000
vt 0.4474 0.8712 0.0000
vt 0.4471 0.8741 0.0000
vt 0.8062 0.6675 0.0000
vt 0.8092 0.6675 0.0000
vt 0.5707 0.2323 0.0000
vt 0.3900 0.2179 0.0000
vt 0.3900 0.2148 0.0000
vt 0.5708 0.2292 0.0000
vt 0.6437 0.2179 0.0000
vt 0.6438 0.2143 0.0000
vt 0.3880 0.8055 0.0000
vt 0.4180 0.8183 0.0000
vt 0.4180 0.8213 0.0000
vt 0.3880 0.8081 0.0000
vt 0.3481 0.7907 0.0000
vt 0.3481 0.7930 0.0000
vt 0.3039 0.8050 0.0000
vt 0.3039 0.8075 0.0000
vt 0.7664 0.7160 0.0000
vt 0.7665 0.6718 0.0000
vt 0.7672 0.8957 0.0000
vt 0.7291 0.4837 0.0000
vt 0.7708 0.5040 0.0000
vt 0.7705 0.5066 0.0000
vt 0.7288 0.4859 0.0000
vt 0.6875 0.4926 0.0000
vt 0.6871 0.4952 0.0000
vt 0.6598 0.5015 0.0000
vt 0.6594 0.5044 0.0000
vt 0.7473 0.9214 0.0000
vt 0.7334 0.7405 0.0000
vt 0.7365 0.7404 0.0000
vt 0.7504 0.9214 0.0000
vt 0.8529 0.4047 0.0000
vt 0.8267 0.3920 0.0000
vt 0.8268 0.3891 0.0000
vt 0.8529 0.4021 0.0000
vt 0.8929 0.4148 0.0000
vt 0.8929 0.4126 0.0000
vt 0.9370 0.4050 0.0000
vt 0.9371 0.4024 0.0000
vt 0.7972 0.5720 0.0000
vt 0.6175 0.5711 0.0000
vt 0.8415 0.5717 0.0000
vt 0.9274 0.5241 0.0000
vt 0.9698 0.5399 0.0000
vt 0.9695 0.5424 0.0000
vt 0.9271 0.5263 0.0000
vt 0.8864 0.5287 0.0000
vt 0.8861 0.5313 0.0000
vt 0.8550 0.5373 0.0000
vt 0.8546 0.5402 0.0000
vt 0.7473 0.6675 0.0000
vt 0.7509 0.6675 0.0000
vt 0.8465 0.8430 0.0000
vt 0.8467 0.8911 0.0000
vt 0.8436 0.8911 0.0000
vt 0.8435 0.8430 0.0000
vt 0.8467 0.6675 0.0000
vt 0.8436 0.6675 0.0000
vt 0.7774 0.2807 0.0000
vt 0.7774 0.2607 0.0000
vt 0.7800 0.2607 0.0000
vt 0.7800 0.2807 0.0000
vt 0.8654 0.7155 0.0000
vt 0.8653 0.8911 0.0000
vt 0.8622 0.8911 0.0000
vt 0.8623 0.7155 0.0000
vt 0.8653 0.6675 0.0000
vt 0.8622 0.6675 0.0000
vt 0.8226 0.2982 0.0000
vt 0.8427 0.2982 0.0000
vt 0.8427 0.3008 0.0000
vt 0.8226 0.3008 0.0000
vt 0.8840 0.6675 0.0000
vt 0.8841 0.7156 0.0000
vt 0.8810 0.7156 0.0000
vt 0.8809 0.6675 0.0000
vt 0.8137 0.2607 0.0000
vt 0.8338 0.2607 0.0000
vt 0.8338 0.2632 0.0000
vt 0.8137 0.2632 0.0000
vt 0.8278 0.8430 0.0000
vt 0.8279 0.8911 0.0000
vt 0.8249 0.8911 0.0000
vt 0.8247 0.8430 0.0000
vt 0.8279 0.6675 0.0000
vt 0.8249 0.6675 0.0000
vt 0.7864 0.3183 0.0000
vt 0.7864 0.2982 0.0000
vt 0.7889 0.2982 0.0000
vt 0.7889 0.3183 0.0000
vt 0.8840 0.8911 0.0000
vt 0.8809 0.8911 0.0000
vt 0.0544 0.2285 0.0000
vt 0.0200 0.2451 0.0000
vt 0.0250 0.1965 0.0000
vt 0.0259 0.0687 0.0000
vt 0.0215 0.0200 0.0000
vt 0.0557 0.0371 0.0000
vt 0.0957 0.0473 0.0000
vt 0.1458 0.0312 0.0000
vt 0.1455 0.0695 0.0000
vt 0.2723 0.0448 0.0000
vt 0.3744 0.1348 0.0000
vt 0.2712 0.2236 0.0000
vt 0.1447 0.1973 0.0000
vt 0.1442 0.2356 0.0000
vt 0.0945 0.2140 0.0000
# 426 texture coords

o Box023
g Box023
usemtl wire_141007058
s off
f 1/1/1 2/2/1 3/3/1 4/4/1 
f 5/5/2 6/6/2 7/7/2 8/8/2 
f 9/9/3 10/10/3 11/11/3 12/12/3 
f 13/13/4 14/14/4 15/15/4 16/16/4 
f 17/17/5 18/18/5 19/19/5 20/20/5 
f 21/21/1 22/22/1 1/1/1 4/4/1 
f 23/23/5 24/24/5 19/19/5 18/18/5 
f 25/25/4 26/26/4 13/13/4 16/16/4 
f 27/27/1 28/28/1 2/2/1 1/1/1 
f 29/29/1 27/27/1 1/1/1 22/22/1 
f 30/30/2 31/31/2 32/32/2 33/33/2 
f 34/34/2 30/30/2 33/33/2 35/35/2 
f 36/36/3 37/37/3 9/9/3 12/12/3 
f 38/38/1 39/39/1 4/4/1 3/3/1 
f 40/40/3 41/41/3 11/11/3 10/10/3 
f 42/42/2 43/43/2 44/44/2 45/45/2 
f 46/46/2 42/42/2 45/45/2 47/47/2 
f 39/39/1 48/48/1 21/21/1 4/4/1 
f 49/49/5 50/50/5 5/51/5 8/52/5 
f 51/53/3 52/54/3 9/9/3 37/37/3 
f 53/55/4 54/56/4 14/14/4 13/13/4 
f 55/57/4 53/55/4 13/13/4 26/26/4 
f 56/58/5 57/59/5 23/23/5 18/18/5 
f 58/60/5 56/58/5 18/18/5 17/17/5 
f 59/61/3 60/62/3 40/40/3 10/10/3 
f 61/63/4 62/64/4 7/65/4 6/66/4 
f 63/67/6 64/68/6 65/69/3 66/70/3 
f 67/71/5 68/72/5 50/50/5 49/49/5 
f 69/73/3 70/74/3 52/54/3 51/53/3 
f 71/75/4 72/76/4 54/56/4 53/55/4 
f 73/77/4 71/75/4 53/55/4 55/57/4 
f 74/78/5 75/79/5 57/59/5 56/58/5 
f 76/80/5 74/78/5 56/58/5 58/60/5 
f 77/81/3 78/82/3 60/62/3 59/61/3 
f 79/83/4 80/84/4 62/64/4 61/63/4 
f 81/85/3 82/86/3 83/87/3 84/88/3 
f 85/89/5 86/90/5 87/91/5 79/92/5 
f 88/93/3 89/94/3 82/86/3 81/85/3 
f 90/95/4 91/96/4 68/97/4 92/98/4 
f 66/99/1 65/100/1 6/101/1 5/102/1 
f 63/103/4 66/104/4 5/105/4 50/106/4 93/107/4 94/108/4 95/109/4 
f 96/110/7 93/111/7 50/112/2 61/113/2 
f 61/114/5 6/115/5 65/116/5 64/117/5 97/118/5 98/119/5 96/120/5 
f 98/121/8 97/122/9 95/123/9 94/124/8 
f 97/122/9 64/68/6 63/67/6 95/123/9 
f 96/110/7 98/125/8 94/126/8 93/111/7 
f 99/127/10 100/128/10 86/90/10 85/89/10 
f 89/94/3 88/93/3 101/129/3 
f 100/130/11 99/131/11 91/96/11 90/95/11 
f 102/132/3 103/133/3 61/134/3 50/135/3 
f 104/136/3 102/132/3 50/135/3 68/137/3 
f 105/138/3 104/136/3 68/137/3 91/139/3 
f 106/140/3 105/138/3 91/139/3 99/141/3 
f 107/142/3 106/140/3 99/141/3 85/143/3 
f 108/144/3 107/142/3 85/143/3 79/145/3 
f 103/133/3 108/144/3 79/145/3 61/134/3 
f 84/146/2 83/147/2 103/148/2 102/149/2 
f 81/150/5 84/151/5 102/152/5 104/153/5 
f 88/154/5 81/150/5 104/153/5 105/155/5 
f 101/156/12 88/157/12 105/158/12 106/159/12 
f 89/160/13 101/156/13 106/159/13 107/161/13 
f 82/162/4 89/163/4 107/164/4 108/165/4 
f 83/166/4 82/162/4 108/165/4 103/167/4 
f 109/168/2 110/169/2 92/170/2 68/171/2 
f 111/172/2 109/168/2 68/171/2 67/173/2 
f 112/174/2 111/172/2 67/173/2 113/175/2 
f 114/176/2 112/174/2 113/175/2 115/177/2 
f 116/178/2 114/176/2 115/177/2 117/179/2 
f 110/169/2 116/178/2 117/179/2 92/170/2 
f 118/180/2 119/181/2 79/182/2 87/183/2 
f 120/184/2 118/180/2 87/183/2 121/185/2 
f 122/186/2 120/184/2 121/185/2 123/187/2 
f 124/188/2 122/186/2 123/187/2 125/189/2 
f 126/190/2 124/188/2 125/189/2 80/191/2 
f 119/181/2 126/190/2 80/191/2 79/182/2 
f 127/192/4 128/193/4 28/194/4 27/195/4 
f 129/196/4 127/192/4 27/195/4 29/197/4 
f 130/198/4 129/196/4 29/197/4 131/199/4 
f 132/200/4 130/198/4 131/199/4 133/201/4 
f 134/202/4 132/200/4 133/201/4 117/203/4 
f 135/204/4 134/205/4 117/206/4 115/207/4 
f 136/208/4 135/204/4 115/207/4 113/209/4 
f 137/210/4 136/211/4 113/212/4 138/213/4 
f 139/214/4 137/210/4 138/213/4 140/215/4 
f 128/193/4 139/214/4 140/215/4 28/194/4 
f 141/216/5 142/217/5 39/218/5 38/219/5 
f 143/220/5 141/216/5 38/219/5 144/221/5 
f 145/222/5 143/220/5 144/221/5 146/223/5 
f 147/224/5 145/222/5 146/223/5 125/225/5 
f 148/226/5 147/227/5 125/228/5 123/229/5 
f 149/230/5 148/226/5 123/229/5 121/231/5 
f 150/232/5 149/233/5 121/234/5 151/235/5 
f 152/236/5 150/232/5 151/235/5 153/237/5 
f 154/238/5 152/236/5 153/237/5 48/239/5 
f 142/217/5 154/238/5 48/239/5 39/218/5 
f 155/240/3 156/241/3 3/242/3 2/243/3 
f 157/244/3 155/240/3 2/243/3 28/245/3 
f 158/246/3 157/244/3 28/245/3 140/247/3 
f 159/248/3 158/246/3 140/247/3 138/249/3 
f 160/250/3 159/248/3 138/249/3 113/251/3 
f 161/252/3 160/250/3 113/251/3 67/253/3 
f 162/254/3 161/252/3 67/253/3 49/255/3 
f 163/256/3 162/254/3 49/255/3 8/257/3 
f 164/258/3 163/256/3 8/257/3 7/259/3 
f 165/260/3 164/258/3 7/259/3 62/261/3 
f 166/262/3 165/260/3 62/261/3 80/263/3 
f 167/264/3 166/262/3 80/263/3 125/265/3 
f 168/266/3 167/264/3 125/265/3 146/267/3 
f 169/268/3 168/266/3 146/267/3 144/269/3 
f 170/270/3 169/268/3 144/269/3 38/271/3 
f 156/241/3 170/270/3 38/271/3 3/242/3 
f 12/272/2 11/273/2 156/274/2 155/275/2 
f 36/276/2 12/272/2 155/275/2 157/277/2 
f 37/278/5 36/279/5 157/280/5 158/281/5 
f 51/282/5 37/278/5 158/281/5 159/283/5 
f 69/284/5 51/285/5 159/286/5 160/287/5 
f 70/288/1 69/289/1 160/290/1 161/291/1 
f 52/292/4 70/293/4 161/294/4 162/295/4 
f 9/296/4 52/292/4 162/295/4 163/297/4 
f 10/298/1 9/299/1 163/300/1 164/301/1 
f 59/302/5 10/303/5 164/304/5 165/305/5 
f 77/306/5 59/302/5 165/305/5 166/307/5 
f 78/308/1 77/309/1 166/310/1 167/311/1 
f 60/312/4 78/313/4 167/314/4 168/315/4 
f 40/316/4 60/312/4 168/315/4 169/317/4 
f 41/318/4 40/316/4 169/317/4 170/319/4 
f 11/273/2 41/320/2 170/321/2 156/274/2 
f 16/322/2 15/323/2 128/324/2 127/325/2 
f 25/326/2 16/322/2 127/325/2 129/327/2 
f 26/328/3 25/329/3 129/330/3 130/331/3 
f 55/332/3 26/328/3 130/331/3 132/333/3 
f 73/334/3 55/332/3 132/333/3 134/335/3 
f 71/336/1 73/337/1 134/205/1 135/204/1 
f 72/338/1 71/336/1 135/204/1 136/208/1 
f 54/339/14 72/340/14 136/341/14 137/342/14 
f 14/343/14 54/339/14 137/342/14 139/344/14 
f 15/345/14 14/343/14 139/344/14 128/346/14 
f 20/347/2 19/348/2 142/349/2 141/350/2 
f 17/351/14 20/352/14 141/353/14 143/354/14 
f 58/355/14 17/351/14 143/354/14 145/356/14 
f 76/357/14 58/355/14 145/356/14 147/358/14 
f 74/359/1 76/360/1 147/227/1 148/226/1 
f 75/361/1 74/359/1 148/226/1 149/230/1 
f 57/362/3 75/363/3 149/364/3 150/365/3 
f 23/366/3 57/362/3 150/365/3 152/367/3 
f 24/368/3 23/366/3 152/367/3 154/369/3 
f 19/348/2 24/370/2 154/371/2 142/349/2 
f 33/372/4 32/373/4 110/374/4 109/375/4 
f 35/376/4 33/372/4 109/375/4 111/377/4 
f 34/378/14 35/379/14 111/380/14 112/381/14 
f 30/382/5 34/383/5 112/384/5 114/385/5 
f 31/386/5 30/382/5 114/385/5 116/387/5 
f 32/388/3 31/389/3 116/390/3 110/391/3 
f 47/392/5 45/393/5 119/394/5 118/395/5 
f 46/396/3 47/397/3 118/398/3 120/399/3 
f 42/400/4 46/401/4 120/402/4 122/403/4 
f 43/404/4 42/400/4 122/403/4 124/405/4 
f 44/406/14 43/407/14 124/408/14 126/409/14 
f 45/393/5 44/410/5 126/411/5 119/394/5 
f 131/412/15 29/413/16 22/414/17 21/415/18 48/416/19 153/417/20 151/418/21 121/419/22 87/420/23 86/421/24 100/422/25 90/423/26 92/424/27 117/425/28 133/426/29 
# 159 polygons - 1 triangles

